<?xml version="1.0" encoding="UTF-8"?>
<svg width="149px" height="30px" viewBox="0 0 149 30" version="1.1" xmlns="http://www.w3.org/2000/svg" xmlns:xlink="http://www.w3.org/1999/xlink">
    <title>Concordium_Landscape-dark</title>
    <g id="Page-1" stroke="none" stroke-width="1" fill="none" fill-rule="evenodd">
        <g id="DevX-LP-2" transform="translate(-697.000000, -1534.000000)" fill="#FFFFFF" fill-rule="nonzero">
            <g id="Group-9" transform="translate(594.000000, 1534.000000)">
                <g id="Concordium_Landscape-dark" transform="translate(103.000000, 0.000000)">
                    <path d="M107.596737,19.2003158 C107.373158,19.2003158 107.152421,19.1142316 106.995474,18.9439895 L102.935368,14.8117263 C102.692211,14.5652526 102.625895,14.2017789 102.763895,13.8856421 C102.900632,13.5727579 103.189579,13.3775684 103.518947,13.3775684 L105.242211,13.3775684 C105.985579,13.3775684 106.637368,12.8031158 106.637368,12.1478211 C106.637368,11.5128947 105.979263,10.9561895 105.230526,10.9561895 L101.957053,10.9561895 C101.961789,10.9581474 101.940632,10.9837895 101.940632,11.0120526 L101.940632,18.3570316 C101.940632,18.8197579 101.564211,19.1970316 101.102211,19.1970316 C100.646526,19.1970316 100.277053,18.8197579 100.277053,18.3570316 L100.277053,11.0120526 C100.277053,10.0688526 101.030526,9.30116842 101.957053,9.30116842 L105.230526,9.30116842 C106.916211,9.30116842 108.288,10.5782526 108.288,12.1478211 C108.288,13.6391684 107.041263,14.9116421 105.51,15.0457263 L108.170526,17.7635368 C108.346105,17.9271789 108.445895,18.1605158 108.437053,18.4050316 C108.429474,18.6330947 108.324316,18.8466947 108.15,18.9945789 C107.992105,19.1326105 107.793474,19.2003158 107.596737,19.2003158 Z M130.803789,19.1970316 C129.362211,19.1970316 128.234211,18.7961053 127.452632,18.0054 C126.660632,17.2015579 126.257368,16.0296316 126.257368,14.5205684 L126.257368,10.0780737 C126.257368,9.61534737 126.622421,9.23873684 127.069895,9.23873684 C127.532526,9.23873684 127.908316,9.61534737 127.908316,10.0780737 L127.908316,14.5205684 C127.908316,16.5929368 128.812105,17.5170632 130.840105,17.5170632 C132.893053,17.5170632 133.773789,16.6198737 133.784211,14.5172526 L133.784211,10.0780737 C133.784211,9.61534737 134.155263,9.23873684 134.610316,9.23873684 C135.065368,9.23873684 135.435474,9.61534737 135.435474,10.0780737 L135.435474,14.5205684 C135.435474,17.5361053 133.803158,19.1970316 130.840105,19.1970316 C130.827789,19.1970316 130.816105,19.1970316 130.803789,19.1970316 Z M147.264,19.1970316 C146.802,19.1970316 146.425579,18.8197579 146.425579,18.3570316 L146.425579,10.9489579 C146.404421,10.9312105 146.390842,10.9371158 146.382,10.9509158 L144.402632,14.2214842 C144.103895,14.7414 143.557895,15.0575368 142.948421,15.0575368 C142.356947,15.0575368 141.831474,14.7532421 141.507474,14.2234737 L139.535053,10.9660421 C139.521474,10.9430211 139.502211,10.9318737 139.498737,10.9305474 L139.483263,18.3570316 C139.483263,18.8197579 139.107474,19.1970316 138.645474,19.1970316 C138.190421,19.1970316 137.82,18.8197579 137.82,18.3570316 L137.82,10.9489579 C137.82,10.0057579 138.574421,9.23873684 139.501579,9.23873684 C140.087053,9.23873684 140.630211,9.55487368 140.953579,10.0853053 L142.926,13.3427368 C142.942421,13.3696737 142.954105,13.3775684 142.958211,13.3788632 C142.948421,13.3749474 142.977158,13.3512632 142.986947,13.3361684 L144.954632,10.0866 C145.283368,9.54697895 145.813579,9.23873684 146.408526,9.23873684 C147.335053,9.23873684 148.089474,10.0057579 148.089474,10.9489579 L148.089474,18.3570316 C148.089474,18.8197579 147.719053,19.1970316 147.264,19.1970316 Z M122.908105,19.1970316 C122.453053,19.1970316 122.083579,18.8197579 122.083579,18.3570316 L122.083579,10.0905474 C122.083579,9.62058947 122.453053,9.23873684 122.908105,9.23873684 C123.370737,9.23873684 123.745895,9.62058947 123.745895,10.0905474 L123.745895,18.3570316 C123.745895,18.8197579 123.370737,19.1970316 122.908105,19.1970316 Z M92.8888421,19.1970316 C89.7337895,19.1970316 87.6129474,17.1956526 87.6129474,14.2175368 C87.6129474,11.2861263 89.7830526,9.23873684 92.8888421,9.23873684 C96.0470526,9.23873684 98.1663158,11.2394526 98.1663158,14.2175368 C98.1663158,17.1956526 96.0470526,19.1970316 92.8888421,19.1970316 Z M92.8888421,10.9305474 C90.6268421,10.9305474 89.2752632,12.1596316 89.2752632,14.2175368 C89.2752632,16.2833368 90.6268421,17.5170632 92.8888421,17.5170632 C95.1527368,17.5170632 96.504,16.2833368 96.504,14.2175368 C96.504,12.1596316 95.1527368,10.9305474 92.8888421,10.9305474 Z M81.8545263,19.1970316 C78.6985263,19.1970316 76.5770526,17.1956526 76.5770526,14.2175368 C76.5770526,11.2861263 78.7471579,9.23873684 81.8545263,9.23873684 C83.3835789,9.23873684 84.6934737,9.69618947 85.6417895,10.5618316 C85.8072632,10.7123368 85.9042105,10.9167474 85.9171579,11.1389053 C85.9307368,11.3643474 85.8562105,11.5812316 85.7074737,11.7501474 C85.5596842,11.9171053 85.3553684,12.0163579 85.1327368,12.0294947 C84.9085263,12.0439579 84.6934737,11.9670632 84.5273684,11.8152316 C83.8938947,11.2368316 82.9702105,10.9305474 81.8545263,10.9305474 C79.5915789,10.9305474 78.2415789,12.1596316 78.2415789,14.2175368 C78.2415789,16.2754737 79.5915789,17.5045579 81.8545263,17.5045579 C82.9702105,17.5045579 83.8938947,17.1982737 84.5273684,16.6198737 C84.6928421,16.4687053 84.9066316,16.3918105 85.1327368,16.4056105 C85.3553684,16.4194105 85.5584211,16.518 85.7074737,16.6849579 C86.0106316,17.0293579 85.9818947,17.5617474 85.6417895,17.8726421 C84.7098947,18.7382526 83.3993684,19.1970316 81.8545263,19.1970316 Z M72.846,19.1970316 C72.2513684,19.1970316 71.7123158,18.8881263 71.4028421,18.3708316 L67.0370526,10.9601368 C67.0231579,10.9371158 67.0095789,10.9305474 67.0061053,10.9305474 L66.9884211,18.3570316 C66.9884211,18.8197579 66.6173684,19.1970316 66.1629474,19.1970316 C65.7006316,19.1970316 65.3248421,18.8197579 65.3248421,18.3570316 L65.3248421,10.9489579 C65.3248421,10.0057579 66.0789474,9.23873684 67.0061053,9.23873684 C67.5997895,9.23873684 68.1429474,9.55686316 68.4622105,10.0898842 L72.828,17.4999474 C72.8330526,17.5091684 72.8437895,17.5164 72.8472632,17.5170632 C72.8649474,17.5170632 72.8766316,17.5045579 72.8766316,17.4861474 L72.8766316,10.0905474 C72.8766316,9.61272632 73.2394737,9.23873684 73.7021053,9.23873684 C74.172,9.23873684 74.5402105,9.61272632 74.5402105,10.0905474 L74.5402105,17.4861474 C74.5402105,18.4293474 73.7813684,19.1970316 72.846,19.1970316 Z M57.9382105,19.1970316 C54.7815789,19.1970316 52.6607368,17.1956526 52.6607368,14.2175368 C52.6607368,11.2861263 54.8305263,9.23873684 57.9382105,9.23873684 C61.0948421,9.23873684 63.2153684,11.2394526 63.2153684,14.2175368 C63.2153684,17.1956526 61.0948421,19.1970316 57.9382105,19.1970316 Z M57.9382105,10.9305474 C55.6752632,10.9305474 54.3243158,12.1596316 54.3243158,14.2175368 C54.3243158,16.2833368 55.6752632,17.5170632 57.9382105,17.5170632 C60.2017895,17.5170632 61.5517895,16.2833368 61.5517895,14.2175368 C61.5517895,12.1596316 60.2017895,10.9305474 57.9382105,10.9305474 Z M46.9029474,19.1970316 C43.7463158,19.1970316 41.6248421,17.1956526 41.6248421,14.2175368 C41.6248421,11.2861263 43.7955789,9.23873684 46.9029474,9.23873684 C48.432,9.23873684 49.7418947,9.69618947 50.6908421,10.5618316 C50.8547368,10.7123368 50.952,10.9167474 50.9655789,11.1389053 C50.9785263,11.3643474 50.904,11.5812316 50.7549474,11.7501474 C50.6074737,11.9171053 50.4037895,12.0163579 50.1817895,12.0294947 C49.9569474,12.0439579 49.7412632,11.9670632 49.5751579,11.8152316 C48.9438947,11.2368316 48.018,10.9305474 46.9029474,10.9305474 C44.6393684,10.9305474 43.2893684,12.1596316 43.2893684,14.2175368 C43.2893684,16.2754737 44.6393684,17.5045579 46.9029474,17.5045579 C48.018,17.5045579 48.9438947,17.1982737 49.5751579,16.6198737 C49.7412632,16.4687053 49.9544211,16.3918105 50.1817895,16.4056105 C50.4037895,16.4194105 50.6074737,16.518 50.7549474,16.6849579 C51.0584211,17.0293579 51.0296842,17.5617474 50.6914737,17.8726421 C49.7576842,18.7382526 48.4471579,19.1970316 46.9029474,19.1970316 Z M114.671053,19.1464105 C114.640105,19.1464105 114.608211,19.1464105 114.577895,19.1464105 L112.201579,19.1464105 C111.274421,19.1464105 110.520316,18.3787263 110.520316,17.4355579 L110.520316,11.0120526 C110.520316,10.0688526 111.274421,9.30116842 112.201579,9.30116842 L114.578842,9.30116842 C116.366842,9.27618947 117.737368,9.71921053 118.620947,10.6071789 C119.443579,11.4340105 119.859474,12.648 119.859474,14.2175368 C119.859474,15.7851474 119.444211,16.9991053 118.624105,17.8266316 C117.744947,18.7146 116.450211,19.1464105 114.671053,19.1464105 Z M114.630632,10.9686632 C114.616421,10.9686632 114.600632,10.9686632 114.584211,10.9686632 L112.201579,10.9686632 C112.201579,10.9699895 112.183263,10.9864105 112.183263,11.0120526 L112.183263,17.4355579 C112.183263,17.4506526 112.200316,17.4756316 112.212,17.4809053 L114.587684,17.4789158 C115.954105,17.4888 116.884737,17.2245789 117.442737,16.6619368 C117.950526,16.1505789 118.196526,15.3513474 118.196526,14.2175368 C118.196526,13.0995474 117.952737,12.3081789 117.449053,11.7994421 C116.897684,11.2407789 115.975263,10.9686632 114.630632,10.9686632 Z" id="Shape"></path>
                    <path d="M28.3661053,21.18 L23.0914737,21.18 C24.4310526,19.4380421 25.2366316,17.2613368 25.2366316,14.8914 C25.2366316,12.5186842 24.4291579,10.3396105 23.0867368,8.59635789 L28.3632632,8.59635789 C29.2575789,10.5080211 29.7596842,12.6405474 29.7596842,14.8914 C29.7596842,17.1398526 29.2582105,19.2700421 28.3661053,21.18 Z M14.9478947,21.18 C11.4814737,21.18 8.67126316,18.3633158 8.67126316,14.8886211 C8.67126316,11.4135474 11.4814737,8.59635789 14.9478947,8.59635789 C18.4146316,8.59635789 21.2242105,11.4135474 21.2242105,14.8886211 C21.2242105,18.3633158 18.4146316,21.18 14.9478947,21.18 Z M4.65347368,14.8914 C4.65347368,20.5904842 9.26084211,25.2104211 14.9450526,25.2104211 C16.4706316,25.2104211 17.9131579,24.8684211 19.2154737,24.2715789 L19.2154737,29.1113684 C17.8635789,29.5184211 16.4317895,29.7397895 14.9478947,29.7397895 C6.768,29.7397895 0.136421053,23.0921053 0.136421053,14.8914 C0.136421053,6.6906 6.768,0.0425684211 14.9478947,0.0425684211 C16.4317895,0.0425684211 17.8635789,0.264221053 19.2154737,0.671242105 L19.2154737,5.51093684 C17.9131579,4.91381053 16.4706316,4.57228421 14.9450526,4.57228421 C9.26084211,4.57228421 4.65347368,9.19228421 4.65347368,14.8914 Z" id="Shape"></path>
                </g>
            </g>
        </g>
    </g>
</svg>