<?xml version="1.0" encoding="UTF-8"?>
<svg width="135px" height="40px" viewBox="0 0 135 40" version="1.1" xmlns="http://www.w3.org/2000/svg" xmlns:xlink="http://www.w3.org/1999/xlink">
    <title>devX-logo</title>
    <defs>
        <linearGradient x1="50%" y1="0%" x2="50%" y2="100%" id="linearGradient-1">
            <stop stop-color="#53D5F5" offset="0%"></stop>
            <stop stop-color="#00409F" offset="100%"></stop>
        </linearGradient>
        <linearGradient x1="50%" y1="0%" x2="50%" y2="100%" id="linearGradient-2">
            <stop stop-color="#53D5F5" offset="0%"></stop>
            <stop stop-color="#00409F" offset="100%"></stop>
        </linearGradient>
    </defs>
    <g id="Page-1" stroke="none" stroke-width="1" fill="none" fill-rule="evenodd">
        <g id="DevX-LP-blue" transform="translate(-120.000000, -49.000000)" fill-rule="nonzero">
            <g id="devX-logo" transform="translate(120.000000, 49.000000)">
                <g id="Group" transform="translate(76.221480, 0.000000)">
                    <path d="M29.2186794,20.4808658 C30.8595777,20.4808658 32.4259073,21.151808 33.5655344,22.3413788 L33.6818903,22.4662817 L33.7927947,22.5926352 L43.1069168,33.5193286 L36.0061816,33.5193286 L30.5880121,27.1711402 C30.5263941,27.0989456 30.4591968,27.0317115 30.3870417,26.9700598 C29.6736806,26.3605397 28.6191368,26.4009417 27.9663571,27.0314713 L27.8979876,27.1012834 L27.835631,27.1711402 L22.4174615,33.5193286 L15.3149023,33.5193286 L24.6437121,22.5910658 C25.7868053,21.2519857 27.4586129,20.4808658 29.2186794,20.4808658 Z M15.3149023,6.40160721 L22.4174615,6.40160721 L27.835631,12.7497956 C28.4846872,13.5102611 29.6269927,13.6002879 30.3870417,12.950876 C30.4351451,12.9097749 30.481045,12.8661927 30.5245573,12.8203137 L30.5880121,12.7497956 L36.0061816,6.40160721 L43.1069168,6.40160721 L33.7927947,17.3283007 C32.650586,18.6682621 30.9788418,19.44007 29.2186794,19.44007 C27.5153892,19.44007 25.8947557,18.7178974 24.7559697,17.4576786 L24.6437121,17.32987 L15.3149023,6.40160721 Z" id="Shape" fill="url(#linearGradient-1)"></path>
                    <path d="M10.3310101,39.9209358 L8.71333311,37.6959053 L8.21505739,37.6959053 C7.55382218,37.6959053 6.98075167,37.4366784 6.51788702,36.9182247 C6.0329812,36.399771 5.79052829,35.7733061 5.79052829,35.03883 L5.79052829,24.8641759 C5.79052829,23.2440081 5.45991069,21.9478738 4.9529637,21.1917955 C4.42397553,20.4357171 3.96111089,20.0468769 3.43212272,19.78765 C4.99704605,19.0315717 5.79052829,17.3465971 5.79052829,14.6895218 L5.79052829,4.86050355 C5.79052829,4.12602746 6.0329812,3.49956255 6.51788702,2.98110884 C6.98075167,2.48425737 7.55382218,2.22503051 8.21505739,2.22503051 L8.71333311,2.22503051 L10.3310101,-5.00011555e-13 L8.08281035,-5.00011555e-13 C6.38563998,-5.00011555e-13 5.15133426,0.453646998 4.42397553,1.38254323 C3.67457563,2.31143947 3.29987568,3.47796032 3.29987568,4.92531026 L3.29987568,16.0288606 C3.29987568,17.0225635 2.19991712,18.271893 1.26318709e-13,19.7768489 C2.19991712,21.2818048 3.29987568,22.5239335 3.29987568,23.5032349 L3.29987568,34.9956255 C3.29987568,38.2791657 4.88684018,39.9209358 8.08281035,39.9209358 L10.3310101,39.9209358 Z" id="left-bracket" fill="url(#linearGradient-2)"></path>
                    <path d="M58.4236431,39.9209358 L56.8059661,37.6959053 L56.3076904,37.6959053 C55.6464552,37.6959053 55.0733847,37.4366784 54.61052,36.9182247 C54.1256142,36.399771 53.8831613,35.7733061 53.8831613,35.03883 L53.8831613,24.8641759 C53.8831613,23.2440081 53.5525437,21.9478738 53.0455967,21.1917955 C52.5166085,20.4357171 52.0537439,20.0468769 51.5247557,19.78765 C53.089679,19.0315717 53.8831613,17.3465971 53.8831613,14.6895218 L53.8831613,4.86050355 C53.8831613,4.12602746 54.1256142,3.49956255 54.61052,2.98110884 C55.0733847,2.48425737 55.6464552,2.22503051 56.3076904,2.22503051 L56.8059661,2.22503051 L58.4236431,-5.00011555e-13 L56.1754433,-5.00011555e-13 C54.478273,-5.00011555e-13 53.2439673,0.453646998 52.5166085,1.38254323 C51.7672086,2.31143947 51.3925087,3.47796032 51.3925087,4.92531026 L51.3925087,16.0288606 C51.3925087,17.0225635 50.2925501,18.271893 48.092633,19.7768489 C50.2925501,21.2818048 51.3925087,22.5239335 51.3925087,23.5032349 L51.3925087,34.9956255 C51.3925087,38.2791657 52.9794732,39.9209358 56.1754433,39.9209358 L58.4236431,39.9209358 Z" id="right-bracket" fill="url(#linearGradient-2)" transform="translate(53.258138, 19.960468) scale(-1, 1) translate(-53.258138, -19.960468) "></path>
                </g>
                <path d="M9.38162585,30.9636758 C12.5236779,30.9636758 15.5535138,29.391789 17.0871344,26.5848482 L17.0871344,30.6642688 L18.8825927,30.6642688 L18.8825927,4.46615469 L17.0871344,4.46615469 L17.0871344,16.2178802 C15.5909191,13.22381 12.5984886,11.8764784 9.41903123,11.8764784 C4.25708862,11.8764784 0.14249669,15.3196591 0.14249669,21.4200771 C0.14249669,27.557921 4.21968324,30.9636758 9.38162585,30.9636758 Z M9.493842,29.1672337 C5.34184468,29.1672337 1.93795499,26.5474223 1.93795499,21.4200771 C1.93795499,16.2178802 5.34184468,13.6354946 9.493842,13.6354946 C13.7580555,13.6354946 17.049729,16.7792683 17.049729,21.3826512 C17.049729,25.9860342 13.8328662,29.1672337 9.493842,29.1672337 Z M36.1157862,30.92625 C39.0708113,30.92625 42.2876741,29.7286219 44.0831324,27.3707916 L42.773944,26.322867 C41.3899449,28.156735 38.547136,29.1298078 36.1157862,29.1298078 C32.3004373,29.1298078 28.9713584,26.6222741 28.5973045,22.2808723 L45.2426992,22.2808723 C45.9534014,15.057678 41.3151342,11.8764784 36.1157862,11.8764784 C30.9164382,11.8764784 26.7270355,15.8810473 26.7270355,21.4200771 C26.7270355,27.2959399 30.9164382,30.92625 36.1157862,30.92625 Z M43.5968624,20.6715596 L28.5973045,20.6715596 C29.0087637,16.1430284 32.3004373,13.5606429 36.1157862,13.5606429 C40.5670265,13.5606429 43.559457,16.1056025 43.5968624,20.6715596 Z M60.7926505,30.6642688 L68.5355644,12.1758854 L66.5156739,12.1758854 L59.7827052,28.5309938 L53.0497366,12.1758854 L51.029846,12.1758854 L58.7727599,30.6642688 L60.7926505,30.6642688 Z" id="dev" fill="#FBFBFB"></path>
            </g>
        </g>
    </g>
</svg>