<?xml version="1.0" encoding="UTF-8"?>
<svg width="36px" height="37px" viewBox="0 0 36 37" version="1.1" xmlns="http://www.w3.org/2000/svg" xmlns:xlink="http://www.w3.org/1999/xlink">
    <title>github-icon</title>
    <g id="Page-1" stroke="none" stroke-width="1" fill="none" fill-rule="evenodd" opacity="0.600000024">
        <g id="DevX-LP-blue" transform="translate(-1153.000000, -52.000000)" fill="#FFFFFE">
            <g id="github-icon" transform="translate(1153.000000, 52.440678)">
                <path d="M18.0001242,3 C9.71687021,3 3,9.71537984 3,17.9998758 C3,24.6273235 7.29799213,30.2500103 13.2580004,32.2334506 C14.0076589,32.3723039 14.2828814,31.9080522 14.2828814,31.5118609 C14.2828814,31.154171 14.2689712,29.9725523 14.2625129,28.7191472 C10.0894639,29.6265369 9.20890085,26.9493273 9.20890085,26.9493273 C8.52655765,25.2155247 7.54340716,24.7545022 7.54340716,24.7545022 C6.1824467,23.8235148 7.64599462,23.8426413 7.64599462,23.8426413 C9.15226661,23.9482095 9.94539433,25.3884082 9.94539433,25.3884082 C11.283254,27.681598 13.4544815,27.0186297 14.3104533,26.635355 C14.4450838,25.6661147 14.8338232,25.0038915 15.2628027,24.6295591 C11.9310702,24.2502587 8.42868971,22.9640654 8.42868971,17.2164355 C8.42868971,15.5787622 9.01465535,14.2406541 9.97420824,13.1901884 C9.81846409,12.81213 9.30503001,11.2867315 10.1195198,9.22057545 C10.1195198,9.22057545 11.3791348,8.8174291 14.245622,10.7581453 C15.4421445,10.4257918 16.7253571,10.2591182 18.0001242,10.2534051 C19.2748913,10.2591182 20.5590975,10.4257918 21.7578555,10.7581453 C24.6208652,8.8174291 25.8787415,9.22057545 25.8787415,9.22057545 C26.6952184,11.2867315 26.1815359,12.81213 26.0257918,13.1901884 C26.9875802,14.2406541 27.5695715,15.5787622 27.5695715,17.2164355 C27.5695715,22.9777272 24.0604844,24.2462844 20.7203064,24.6176361 C21.2583316,25.0831298 21.7377355,25.9959843 21.7377355,27.3954461 C21.7377355,29.4022356 21.7203478,31.0175533 21.7203478,31.5118609 C21.7203478,31.9110329 21.990354,32.3787622 22.7506934,32.2314635 C28.7074726,30.2457876 33,24.625088 33,17.9998758 C33,9.71537984 26.2841234,3 18.0001242,3" id="Fill-52"></path>
            </g>
        </g>
    </g>
</svg>