<?xml version="1.0" encoding="UTF-8"?>
<svg width="36px" height="37px" viewBox="0 0 36 37" version="1.1" xmlns="http://www.w3.org/2000/svg" xmlns:xlink="http://www.w3.org/1999/xlink">
    <title>icon-twitter</title>
    <g id="Page-1" stroke="none" stroke-width="1" fill="none" fill-rule="evenodd">
        <g id="DevX-LP-blue" transform="translate(-1086.000000, -52.000000)" fill="#A3A3A4" fill-rule="nonzero">
            <g id="twitter" transform="translate(1086.000000, 52.000000)">
                <path d="M34,9.078 C32.81,9.6 31.542,9.946 30.22,10.114 C31.58,9.302 32.618,8.026 33.106,6.488 C31.838,7.244 30.438,7.778 28.946,8.076 C27.742,6.794 26.026,6 24.154,6 C20.522,6 17.598,8.948 17.598,12.562 C17.598,13.082 17.642,13.582 17.75,14.058 C12.296,13.792 7.47,11.178 4.228,7.196 C3.662,8.178 3.33,9.302 3.33,10.512 C3.33,12.784 4.5,14.798 6.244,15.964 C5.19,15.944 4.156,15.638 3.28,15.156 C3.28,15.176 3.28,15.202 3.28,15.228 C3.28,18.416 5.554,21.064 8.536,21.674 C8.002,21.82 7.42,21.89 6.816,21.89 C6.396,21.89 5.972,21.866 5.574,21.778 C6.424,24.376 8.836,26.286 11.704,26.348 C9.472,28.094 6.638,29.146 3.57,29.146 C3.032,29.146 2.516,29.122 2,29.056 C4.906,30.93 8.35,32 12.064,32 C24.136,32 30.736,22 30.736,13.332 C30.736,13.042 30.726,12.762 30.712,12.484 C32.014,11.56 33.108,10.406 34,9.078 Z" id="Path"></path>
            </g>
        </g>
    </g>
</svg>