<?xml version="1.0" encoding="UTF-8"?>
<svg width="56px" height="30px" viewBox="0 0 56 30" version="1.1" xmlns="http://www.w3.org/2000/svg" xmlns:xlink="http://www.w3.org/1999/xlink">
    <title>rustacean-flat-happy</title>
    <g id="Page-1" stroke="none" stroke-width="1" fill="none" fill-rule="evenodd">
        <g id="DevX-LP-blue" transform="translate(-415.000000, -961.000000)">
            <g id="Group-11" transform="translate(120.000000, 899.000000)">
                <g id="rustacean-flat-happy" transform="translate(295.000000, 62.000000)">
                    <g id="Group" transform="translate(9.924528, 12.658585)" fill="#A52B00" fill-rule="nonzero">
                        <path d="M37.1226415,6.68853774 L36.5532075,5.50900943 C36.5561792,5.46433962 36.5584434,5.41948113 36.5584434,5.37443396 C36.5584434,4.03735849 35.1679717,2.80504717 32.8287736,1.81834906 L32.8287736,2.63877358 C32.6006604,2.54825472 32.3631604,2.46014151 32.1157075,2.37495283 L32.1157075,1.9925 C28.7725943,0.786839623 23.7957547,0.0218396226 18.2364151,0.0218396226 C13.3791981,0.0218396226 8.96617925,0.605801887 5.69910377,1.55740566 L5.69910377,2.88976415 L5.69900943,2.88976415 L5.69900943,1.27712264 C2.35183962,2.34080189 0.276650943,3.81849057 0.276650943,5.45235849 C0.276650943,5.70990566 0.328584906,5.96358491 0.428396226,6.21240566 L0.0874528302,6.81933962 C0.0874528302,6.81933962 -0.185754717,7.17367925 0.295283019,7.92132075 C0.719528302,8.58061321 2.84471698,11.1611792 3.96636792,12.5125943 C4.44816038,13.2053774 4.77490566,13.6321226 4.8034434,13.5908491 C4.84849057,13.5254717 4.50386792,12.2247642 3.54707547,10.7407075 C3.10056604,9.94377358 2.56745283,8.88773585 2.24735849,8.10773585 C3.14084906,8.67330189 8.39028302,11.3166509 19.0979245,11.3058962 C30.0410377,11.2949528 34.9052358,7.8695283 35.4391038,7.40320755 C35.2525472,8.15268868 34.6151415,9.66891509 34.1067925,10.7351887 C33.2716038,12.2602358 32.9690566,13.5879245 33.0079245,13.6535849 C33.0326415,13.695 33.3175943,13.2554245 33.7379245,12.543066 C34.7158019,11.1495283 36.5689151,8.48933962 36.9391981,7.81169811 C37.3588208,7.04353774 37.1226415,6.68853774 37.1226415,6.68853774" id="Path"></path>
                    </g>
                    <g id="Group" transform="translate(5.919340, 0.041745)" fill="#F74C00" fill-rule="nonzero">
                        <path d="M44.4339623,19.2988208 L40.6913679,16.541934 C40.6562264,16.4192925 40.6210849,16.2966038 40.5847642,16.1749057 L41.8141038,14.3940566 C41.9395755,14.2129245 41.9648585,13.9774528 41.8833962,13.7708962 C41.8017453,13.5653302 41.6232547,13.4179717 41.4121698,13.3818868 L39.3335849,13.0291038 C39.2529717,12.864717 39.1685849,12.7028774 39.0838679,12.5423585 L39.957217,10.5429245 C40.0469811,10.3392925 40.0282075,10.1025943 39.9090094,9.91773585 C39.790283,9.7320283 39.5889151,9.62353774 39.3741981,9.63198113 L37.2645755,9.70863208 C37.1553774,9.56636792 37.044434,9.4254717 36.9312264,9.28707547 L37.4160377,7.1440566 C37.4651887,6.92650943 37.4031132,6.69863208 37.2515566,6.54056604 C37.1008491,6.38306604 36.8818396,6.31783019 36.6735849,6.36891509 L34.6187736,6.8740566 C34.4857547,6.75646226 34.3504717,6.64042453 34.2136792,6.52665094 L34.2875943,4.32660377 C34.2955189,4.10391509 34.1916981,3.89226415 34.0134434,3.76863208 C33.835283,3.64429245 33.6091981,3.62561321 33.4143396,3.7179717 L31.4974528,4.62933962 C31.343066,4.54075472 31.187783,4.45306604 31.0308491,4.36816038 L30.6921226,2.20018868 C30.6577358,1.98056604 30.5164623,1.79396226 30.3185849,1.70877358 C30.1211792,1.62306604 29.8951887,1.65084906 29.7219811,1.78122642 L28.0129245,3.06353774 C27.8445755,3.00764151 27.6755189,2.95410377 27.5044811,2.90283019 L26.7678302,0.846933962 C26.6929245,0.637358491 26.5201887,0.483443396 26.3095283,0.440141509 C26.0996226,0.397264151 25.8836792,0.46995283 25.7381132,0.63259434 L24.2994811,2.24198113 C24.1256604,2.2220283 23.9515094,2.20377358 23.7770283,2.18863208 L22.6662264,0.317122642 C22.5537736,0.12759434 22.3550472,0.0122169811 22.1408019,0.0122169811 C21.9271698,0.0122169811 21.728066,0.12759434 21.6163679,0.317122642 L20.505283,2.18863208 C20.3307075,2.20377358 20.1558491,2.2220283 19.9822642,2.24198113 L18.5436321,0.63259434 C18.3978774,0.46995283 18.1811792,0.397264151 17.9718396,0.440141509 C17.7614623,0.484009434 17.5884434,0.637358491 17.5139623,0.846933962 L16.7767453,2.90283019 C16.6059434,2.95410377 16.4368868,3.00801887 16.2682547,3.06353774 L14.5597642,1.78122642 C14.3860377,1.65037736 14.1598585,1.62268868 13.962217,1.70877358 C13.765,1.79396226 13.6231604,1.98056604 13.5889623,2.20018868 L13.25,4.36816038 C13.0933019,4.45306604 12.9380189,4.54028302 12.7832547,4.62933962 L10.8665566,3.7179717 C10.6718868,3.62523585 10.4446226,3.64429245 10.2673113,3.76863208 C10.0893396,3.89226415 9.98523585,4.10391509 9.99325472,4.32660377 L10.066934,6.52665094 C9.93042453,6.64042453 9.79542453,6.75646226 9.66169811,6.8740566 L7.60726415,6.36891509 C7.39863208,6.31825472 7.17981132,6.38306604 7.02872642,6.54056604 C6.87679245,6.69863208 6.81523585,6.92650943 6.8640566,7.1440566 L7.34787736,9.28707547 C7.23570755,9.42599057 7.12462264,9.56636792 7.01570755,9.70863208 L4.90608491,9.63198113 C4.69320755,9.62561321 4.49,9.7320283 4.37103774,9.91773585 C4.25183962,10.1025943 4.23377358,10.3392925 4.3225,10.5429245 L5.19646226,12.5423585 C5.11160377,12.7028774 5.02731132,12.864717 4.94603774,13.0291038 L2.86759434,13.3818868 C2.65632075,13.4174528 2.47834906,13.564717 2.39617925,13.7708962 C2.31466981,13.9774528 2.34113208,14.2129245 2.46570755,14.3940566 L3.69523585,16.1749057 C3.68575472,16.2063679 3.67698113,16.238066 3.66754717,16.2696226 L0.191320755,19.9623113 C0.191320755,19.9623113 -0.341509434,20.3798113 0.434103774,21.3610849 C1.11806604,22.2266981 4.62990566,25.658066 6.48462264,27.4556604 C7.26792453,28.3683019 7.80462264,28.9334434 7.86066038,28.8845755 C7.94915094,28.8069811 7.48462264,27.1465094 5.94169811,25.1983019 C4.75226415,23.4503774 3.20863208,20.7620283 3.57061321,20.4521698 C3.57061321,20.4521698 3.98235849,19.9294811 4.8084434,19.5532547 C4.83867925,19.5774057 4.77721698,19.5293396 4.8084434,19.5532547 C4.8084434,19.5532547 22.2421698,27.595283 38.4135849,19.6892925 C40.2609434,19.3579245 41.3792925,20.3475472 41.3792925,20.3475472 C41.7649528,20.5711321 40.7662736,23.3354717 39.945,25.1653302 C38.828066,27.2431604 38.6642925,28.8644811 38.7589623,28.9207075 C38.8187736,28.9564151 39.2251415,28.3380189 39.8048113,27.3538679 C41.2351887,25.3608019 43.9390566,21.5613208 44.4339623,20.6383962 C44.9950472,19.5920755 44.4339623,19.2988208 44.4339623,19.2988208" id="Path"></path>
                    </g>
                    <g id="Group" transform="translate(42.400755, 5.173538)" fill="#F74C00" fill-rule="nonzero">
                        <path d="M0.330188679,13.1351887 C0.330188679,13.1351887 2.83863208,13.0188679 6.13358491,9.67 L6.6004717,8.63325472 C6.6004717,8.63325472 1.48646226,3.54608491 9.43622642,0.0346226415 C9.43622642,0.0346226415 8.74023585,1.17198113 8.94443396,5.56632075 C8.94443396,5.56632075 11.3413679,4.73382075 12.0441509,0.852169811 C12.0441509,0.852169811 15.5403774,5.46179245 8.24688679,9.78504717 C8.24688679,9.78504717 4.82518868,15.2703774 0.00136792453,14.7449528 L0.330188679,13.1351887 Z" id="Path"></path>
                    </g>
                    <g id="Group" transform="translate(30.660236, 14.262311)" fill="#000000">
                        <path d="M0.70754717,0.887169811 C0.70754717,0.887169811 2.44976415,-1.02051887 4.1920283,0.887169811 C4.1920283,0.887169811 5.56099057,3.43089623 4.1920283,4.70259434 C4.1920283,4.70259434 1.95207547,6.48316038 0.70754717,4.70259434 C0.70754717,4.70259434 -0.785754717,3.30358491 0.70754717,0.887169811" id="Path"></path>
                    </g>
                    <g id="Group" transform="translate(31.403821, 14.489104)" fill="#FFFFFF" fill-rule="nonzero">
                        <path d="M1.98113208,1.36811321 C1.98113208,2.11084906 1.54330189,2.71311321 1.00320755,2.71311321 C0.463207547,2.71311321 0.0253773585,2.11084906 0.0253773585,1.36811321 C0.0253773585,0.625188679 0.463207547,0.0229245283 1.00320755,0.0229245283 C1.54330189,0.0229245283 1.98113208,0.625188679 1.98113208,1.36811321" id="Path"></path>
                    </g>
                    <g id="Group" transform="translate(22.554151, 14.327170)" fill="#000000">
                        <path d="M1.03773585,0.301462264 C1.03773585,0.301462264 4.02617925,-1.02174528 4.84188679,1.93174528 C4.84188679,1.93174528 5.69632075,5.37419811 2.38764151,5.56849057 C2.38764151,5.56849057 -1.83141509,4.75584906 1.03773585,0.301462264" id="Path"></path>
                    </g>
                    <g id="Group" transform="translate(23.064528, 14.490755)" fill="#FFFFFF" fill-rule="nonzero">
                        <path d="M2.02830189,1.41518868 C2.02830189,2.18117925 1.57679245,2.80240566 1.01976415,2.80240566 C0.462971698,2.80240566 0.0113207547,2.18117925 0.0113207547,1.41518868 C0.0113207547,0.648962264 0.462971698,0.0278773585 1.01976415,0.0278773585 C1.57679245,0.0278773585 2.02830189,0.648962264 2.02830189,1.41518868" id="Path"></path>
                    </g>
                    <g id="Group" transform="translate(27.420613, 20.781792)" fill="#000000">
                        <path d="M0,0.31740566 L3.81113208,0.0115566038 C3.81113208,0.0115566038 3.68198113,0.62504717 3.18476415,1.08556604 C3.18476415,1.08556604 1.87391509,2.52283019 0.37,0.966084906 C0.37,0.966084906 0.123915094,0.700566038 0,0.31740566" id="Path"></path>
                    </g>
                    <g id="Group" transform="translate(0.037547, 6.168774)" fill="#F74C00" fill-rule="nonzero">
                        <path d="M12.1226415,11.4028774 C12.0911792,11.4028774 12.0603302,11.4051887 12.0295755,11.4076415 C10.7921226,11.1259906 7.31386792,10.2196698 6.39448113,8.74900943 C6.39448113,8.74900943 11.075,3.42485849 3.75957547,0.0216981132 L4.61132075,5.91216981 C4.61132075,5.91216981 2.35617925,4.40514151 1.8695283,1.13169811 C1.8695283,1.13169811 -3.62212264,5.11726415 4.29330189,8.93707547 C4.29330189,8.93707547 5.01122642,11.6345755 11.9041038,13.7868396 L11.9091509,13.7663208 C11.9785377,13.7791509 12.0495755,13.7868396 12.1226415,13.7868396 C12.7739623,13.7868396 13.3020283,13.2532547 13.3020283,12.5948113 C13.3020283,11.9365094 12.7739623,11.4028774 12.1226415,11.4028774" id="Path"></path>
                    </g>
                </g>
            </g>
        </g>
    </g>
</svg>