<?xml version="1.0" encoding="UTF-8"?>
<svg width="288px" height="281px" viewBox="0 0 288 281" version="1.1" xmlns="http://www.w3.org/2000/svg" xmlns:xlink="http://www.w3.org/1999/xlink">
    <title>Shape</title>
    <defs>
        <linearGradient x1="50%" y1="0%" x2="50%" y2="100%" id="linearGradient-1">
            <stop stop-color="#53D5F5" offset="0%"></stop>
            <stop stop-color="#00409F" offset="100%"></stop>
        </linearGradient>
    </defs>
    <g id="Page-1" stroke="none" stroke-width="1" fill="none" fill-rule="evenodd" opacity="0.071919">
        <g id="DevX-LP-blue" transform="translate(-972.000000, -962.000000)" fill="url(#linearGradient-1)" fill-rule="nonzero">
            <g id="Group-11" transform="translate(120.000000, 899.000000)">
                <path d="M995.709615,208.657631 C1012.65247,208.657631 1028.82537,215.585345 1040.59242,227.868081 L1041.79383,229.157747 L1042.93896,230.462391 L1139.11055,343.284339 L1065.79296,343.284339 L1009.84846,277.737064 C1009.21223,276.99163 1008.51839,276.297414 1007.77337,275.660838 C1000.40766,269.367329 989.519127,269.784494 982.778947,276.294933 L982.073008,277.015768 L981.429154,277.737064 L925.48465,343.284339 L852.148231,343.284339 L948.47147,230.446187 C960.274309,216.619714 977.53631,208.657631 995.709615,208.657631 Z M852.148231,63.2843395 L925.48465,63.2843395 L981.429154,128.831615 C988.130887,136.683688 999.925593,137.613246 1007.77337,130.907841 C1008.27005,130.483457 1008.74398,130.033455 1009.19326,129.559739 L1009.84846,128.831615 L1065.79296,63.2843395 L1139.11055,63.2843395 L1042.93896,176.106288 C1031.14526,189.941861 1013.88391,197.911048 995.709615,197.911048 C978.122545,197.911048 961.388935,190.454362 949.630569,177.44216 L948.47147,176.122492 L852.148231,63.2843395 Z" id="Shape" style="mix-blend-mode: screen;"></path>
            </g>
        </g>
    </g>
</svg>