<svg id="Layer_1" data-name="Layer 1" xmlns="http://www.w3.org/2000/svg" viewBox="0 0 1073.5 647"><defs><style>.cls-1{opacity:0.25;}.cls-2{fill:none;stroke:#000;stroke-miterlimit:10;}</style></defs><title>wavy-bg</title><g class="cls-1"><path class="cls-2" d="M169,717.5c25.56,0,25.56,16,51.12,16s25.56-16,51.11-16,25.56,16,51.12,16,25.56-16,51.12-16,25.56,16,51.11,16,25.56-16,51.12-16,25.56,16,51.12,16,25.56-16,51.12-16,25.55,16,51.11,16,25.56-16,51.12-16,25.56,16,51.11,16,25.56-16,51.12-16,25.56,16,51.13,16,25.55-16,51.11-16,25.57,16,51.13,16,25.56-16,51.11-16,25.56,16,51.12,16,25.56-16,51.13-16,25.56,16,51.12,16,25.56-16,51.12-16,25.57,16,51.13,16" transform="translate(-169 -87)"/><path class="cls-2" d="M169,710.5c25.56,0,25.56,16,51.12,16s25.56-16,51.11-16,25.56,16,51.12,16,25.56-16,51.12-16,25.56,16,51.11,16,25.56-16,51.12-16,25.56,16,51.12,16,25.56-16,51.12-16,25.55,16,51.11,16,25.56-16,51.12-16,25.56,16,51.11,16,25.56-16,51.12-16,25.56,16,51.13,16,25.55-16,51.11-16,25.57,16,51.13,16,25.56-16,51.11-16,25.56,16,51.12,16,25.56-16,51.13-16,25.56,16,51.12,16,25.56-16,51.12-16,25.57,16,51.13,16" transform="translate(-169 -87)"/><path class="cls-2" d="M169,703.5c25.56,0,25.56,16,51.12,16s25.56-16,51.11-16,25.56,16,51.12,16,25.56-16,51.12-16,25.56,16,51.11,16,25.56-16,51.12-16,25.56,16,51.12,16,25.56-16,51.12-16,25.55,16,51.11,16,25.56-16,51.12-16,25.56,16,51.11,16,25.56-16,51.12-16,25.56,16,51.13,16,25.55-16,51.11-16,25.57,16,51.13,16,25.56-16,51.11-16,25.56,16,51.12,16,25.56-16,51.13-16,25.56,16,51.12,16,25.56-16,51.12-16,25.57,16,51.13,16" transform="translate(-169 -87)"/><path class="cls-2" d="M169,696.5c25.56,0,25.56,16,51.12,16s25.56-16,51.11-16,25.56,16,51.12,16,25.56-16,51.12-16,25.56,16,51.11,16,25.56-16,51.12-16,25.56,16,51.12,16,25.56-16,51.12-16,25.55,16,51.11,16,25.56-16,51.12-16,25.56,16,51.11,16,25.56-16,51.12-16,25.56,16,51.13,16,25.55-16,51.11-16,25.57,16,51.13,16,25.56-16,51.11-16,25.56,16,51.12,16,25.56-16,51.13-16,25.56,16,51.12,16,25.56-16,51.12-16,25.57,16,51.13,16" transform="translate(-169 -87)"/><path class="cls-2" d="M169,689.5c25.56,0,25.56,16,51.12,16s25.56-16,51.11-16,25.56,16,51.12,16,25.56-16,51.12-16,25.56,16,51.11,16,25.56-16,51.12-16,25.56,16,51.12,16,25.56-16,51.12-16,25.55,16,51.11,16,25.56-16,51.12-16,25.56,16,51.11,16,25.56-16,51.12-16,25.56,16,51.13,16,25.55-16,51.11-16,25.57,16,51.13,16,25.56-16,51.11-16,25.56,16,51.12,16,25.56-16,51.13-16,25.56,16,51.12,16,25.56-16,51.12-16,25.57,16,51.13,16" transform="translate(-169 -87)"/><path class="cls-2" d="M169,682.5c25.56,0,25.56,16,51.12,16s25.56-16,51.11-16,25.56,16,51.12,16,25.56-16,51.12-16,25.56,16,51.11,16,25.56-16,51.12-16,25.56,16,51.12,16,25.56-16,51.12-16,25.55,16,51.11,16,25.56-16,51.12-16,25.56,16,51.11,16,25.56-16,51.12-16,25.56,16,51.13,16,25.55-16,51.11-16,25.57,16,51.13,16,25.56-16,51.11-16,25.56,16,51.12,16,25.56-16,51.13-16,25.56,16,51.12,16,25.56-16,51.12-16,25.57,16,51.13,16" transform="translate(-169 -87)"/><path class="cls-2" d="M169,675.5c25.56,0,25.56,16,51.12,16s25.56-16,51.11-16,25.56,16,51.12,16,25.56-16,51.12-16,25.56,16,51.11,16,25.56-16,51.12-16,25.56,16,51.12,16,25.56-16,51.12-16,25.55,16,51.11,16,25.56-16,51.12-16,25.56,16,51.11,16,25.56-16,51.12-16,25.56,16,51.13,16,25.55-16,51.11-16,25.57,16,51.13,16,25.56-16,51.11-16,25.56,16,51.12,16,25.56-16,51.13-16,25.56,16,51.12,16,25.56-16,51.12-16,25.57,16,51.13,16" transform="translate(-169 -87)"/><path class="cls-2" d="M169,668.5c25.56,0,25.56,16,51.12,16s25.56-16,51.11-16,25.56,16,51.12,16,25.56-16,51.12-16,25.56,16,51.11,16,25.56-16,51.12-16,25.56,16,51.12,16,25.56-16,51.12-16,25.55,16,51.11,16,25.56-16,51.12-16,25.56,16,51.11,16,25.56-16,51.12-16,25.56,16,51.13,16,25.55-16,51.11-16,25.57,16,51.13,16,25.56-16,51.11-16,25.56,16,51.12,16,25.56-16,51.13-16,25.56,16,51.12,16,25.56-16,51.12-16,25.57,16,51.13,16" transform="translate(-169 -87)"/><path class="cls-2" d="M169,661.5c25.56,0,25.56,16,51.12,16s25.56-16,51.11-16,25.56,16,51.12,16,25.56-16,51.12-16,25.56,16,51.11,16,25.56-16,51.12-16,25.56,16,51.12,16,25.56-16,51.12-16,25.55,16,51.11,16,25.56-16,51.12-16,25.56,16,51.11,16,25.56-16,51.12-16,25.56,16,51.13,16,25.55-16,51.11-16,25.57,16,51.13,16,25.56-16,51.11-16,25.56,16,51.12,16,25.56-16,51.13-16,25.56,16,51.12,16,25.56-16,51.12-16,25.57,16,51.13,16" transform="translate(-169 -87)"/><path class="cls-2" d="M169,654.5c25.56,0,25.56,16,51.12,16s25.56-16,51.11-16,25.56,16,51.12,16,25.56-16,51.12-16,25.56,16,51.11,16,25.56-16,51.12-16,25.56,16,51.12,16,25.56-16,51.12-16,25.55,16,51.11,16,25.56-16,51.12-16,25.56,16,51.11,16,25.56-16,51.12-16,25.56,16,51.13,16,25.55-16,51.11-16,25.57,16,51.13,16,25.56-16,51.11-16,25.56,16,51.12,16,25.56-16,51.13-16,25.56,16,51.12,16,25.56-16,51.12-16,25.57,16,51.13,16" transform="translate(-169 -87)"/><path class="cls-2" d="M169,647.5c25.56,0,25.56,16,51.12,16s25.56-16,51.11-16,25.56,16,51.12,16,25.56-16,51.12-16,25.56,16,51.11,16,25.56-16,51.12-16,25.56,16,51.12,16,25.56-16,51.12-16,25.55,16,51.11,16,25.56-16,51.12-16,25.56,16,51.11,16,25.56-16,51.12-16,25.56,16,51.13,16,25.55-16,51.11-16,25.57,16,51.13,16,25.56-16,51.11-16,25.56,16,51.12,16,25.56-16,51.13-16,25.56,16,51.12,16,25.56-16,51.12-16,25.57,16,51.13,16" transform="translate(-169 -87)"/><path class="cls-2" d="M169,640.5c25.56,0,25.56,16,51.12,16s25.56-16,51.11-16,25.56,16,51.12,16,25.56-16,51.12-16,25.56,16,51.11,16,25.56-16,51.12-16,25.56,16,51.12,16,25.56-16,51.12-16,25.55,16,51.11,16,25.56-16,51.12-16,25.56,16,51.11,16,25.56-16,51.12-16,25.56,16,51.13,16,25.55-16,51.11-16,25.57,16,51.13,16,25.56-16,51.11-16,25.56,16,51.12,16,25.56-16,51.13-16,25.56,16,51.12,16,25.56-16,51.12-16,25.57,16,51.13,16" transform="translate(-169 -87)"/><path class="cls-2" d="M169,633.5c25.56,0,25.56,16,51.12,16s25.56-16,51.11-16,25.56,16,51.12,16,25.56-16,51.12-16,25.56,16,51.11,16,25.56-16,51.12-16,25.56,16,51.12,16,25.56-16,51.12-16,25.55,16,51.11,16,25.56-16,51.12-16,25.56,16,51.11,16,25.56-16,51.12-16,25.56,16,51.13,16,25.55-16,51.11-16,25.57,16,51.13,16,25.56-16,51.11-16,25.56,16,51.12,16,25.56-16,51.13-16,25.56,16,51.12,16,25.56-16,51.12-16,25.57,16,51.13,16" transform="translate(-169 -87)"/><path class="cls-2" d="M169,626.5c25.56,0,25.56,16,51.12,16s25.56-16,51.11-16,25.56,16,51.12,16,25.56-16,51.12-16,25.56,16,51.11,16,25.56-16,51.12-16,25.56,16,51.12,16,25.56-16,51.12-16,25.55,16,51.11,16,25.56-16,51.12-16,25.56,16,51.11,16,25.56-16,51.12-16,25.56,16,51.13,16,25.55-16,51.11-16,25.57,16,51.13,16,25.56-16,51.11-16,25.56,16,51.12,16,25.56-16,51.13-16,25.56,16,51.12,16,25.56-16,51.12-16,25.57,16,51.13,16" transform="translate(-169 -87)"/><path class="cls-2" d="M169,619.5c25.56,0,25.56,16,51.12,16s25.56-16,51.11-16,25.56,16,51.12,16,25.56-16,51.12-16,25.56,16,51.11,16,25.56-16,51.12-16,25.56,16,51.12,16,25.56-16,51.12-16,25.55,16,51.11,16,25.56-16,51.12-16,25.56,16,51.11,16,25.56-16,51.12-16,25.56,16,51.13,16,25.55-16,51.11-16,25.57,16,51.13,16,25.56-16,51.11-16,25.56,16,51.12,16,25.56-16,51.13-16,25.56,16,51.12,16,25.56-16,51.12-16,25.57,16,51.13,16" transform="translate(-169 -87)"/><path class="cls-2" d="M169,612.5c25.56,0,25.56,16,51.12,16s25.56-16,51.11-16,25.56,16,51.12,16,25.56-16,51.12-16,25.56,16,51.11,16,25.56-16,51.12-16,25.56,16,51.12,16,25.56-16,51.12-16,25.55,16,51.11,16,25.56-16,51.12-16,25.56,16,51.11,16,25.56-16,51.12-16,25.56,16,51.13,16,25.55-16,51.11-16,25.57,16,51.13,16,25.56-16,51.11-16,25.56,16,51.12,16,25.56-16,51.13-16,25.56,16,51.12,16,25.56-16,51.12-16,25.57,16,51.13,16" transform="translate(-169 -87)"/><path class="cls-2" d="M169,605.5c25.56,0,25.56,16,51.12,16s25.56-16,51.11-16,25.56,16,51.12,16,25.56-16,51.12-16,25.56,16,51.11,16,25.56-16,51.12-16,25.56,16,51.12,16,25.56-16,51.12-16,25.55,16,51.11,16,25.56-16,51.12-16,25.56,16,51.11,16,25.56-16,51.12-16,25.56,16,51.13,16,25.55-16,51.11-16,25.57,16,51.13,16,25.56-16,51.11-16,25.56,16,51.12,16,25.56-16,51.13-16,25.56,16,51.12,16,25.56-16,51.12-16,25.57,16,51.13,16" transform="translate(-169 -87)"/><path class="cls-2" d="M169,598.5c25.56,0,25.56,16,51.12,16s25.56-16,51.11-16,25.56,16,51.12,16,25.56-16,51.12-16,25.56,16,51.11,16,25.56-16,51.12-16,25.56,16,51.12,16,25.56-16,51.12-16,25.55,16,51.11,16,25.56-16,51.12-16,25.56,16,51.11,16,25.56-16,51.12-16,25.56,16,51.13,16,25.55-16,51.11-16,25.57,16,51.13,16,25.56-16,51.11-16,25.56,16,51.12,16,25.56-16,51.13-16,25.56,16,51.12,16,25.56-16,51.12-16,25.57,16,51.13,16" transform="translate(-169 -87)"/><path class="cls-2" d="M169,591.5c25.56,0,25.56,16,51.12,16s25.56-16,51.11-16,25.56,16,51.12,16,25.56-16,51.12-16,25.56,16,51.11,16,25.56-16,51.12-16,25.56,16,51.12,16,25.56-16,51.12-16,25.55,16,51.11,16,25.56-16,51.12-16,25.56,16,51.11,16,25.56-16,51.12-16,25.56,16,51.13,16,25.55-16,51.11-16,25.57,16,51.13,16,25.56-16,51.11-16,25.56,16,51.12,16,25.56-16,51.13-16,25.56,16,51.12,16,25.56-16,51.12-16,25.57,16,51.13,16" transform="translate(-169 -87)"/><path class="cls-2" d="M169,584.5c25.56,0,25.56,16,51.12,16s25.56-16,51.11-16,25.56,16,51.12,16,25.56-16,51.12-16,25.56,16,51.11,16,25.56-16,51.12-16,25.56,16,51.12,16,25.56-16,51.12-16,25.55,16,51.11,16,25.56-16,51.12-16,25.56,16,51.11,16,25.56-16,51.12-16,25.56,16,51.13,16,25.55-16,51.11-16,25.57,16,51.13,16,25.56-16,51.11-16,25.56,16,51.12,16,25.56-16,51.13-16,25.56,16,51.12,16,25.56-16,51.12-16,25.57,16,51.13,16" transform="translate(-169 -87)"/><path class="cls-2" d="M169,577.5c25.56,0,25.56,16,51.12,16s25.56-16,51.11-16,25.56,16,51.12,16,25.56-16,51.12-16,25.56,16,51.11,16,25.56-16,51.12-16,25.56,16,51.12,16,25.56-16,51.12-16,25.55,16,51.11,16,25.56-16,51.12-16,25.56,16,51.11,16,25.56-16,51.12-16,25.56,16,51.13,16,25.55-16,51.11-16,25.57,16,51.13,16,25.56-16,51.11-16,25.56,16,51.12,16,25.56-16,51.13-16,25.56,16,51.12,16,25.56-16,51.12-16,25.57,16,51.13,16" transform="translate(-169 -87)"/><path class="cls-2" d="M169,570.5c25.56,0,25.56,16,51.12,16s25.56-16,51.11-16,25.56,16,51.12,16,25.56-16,51.12-16,25.56,16,51.11,16,25.56-16,51.12-16,25.56,16,51.12,16,25.56-16,51.12-16,25.55,16,51.11,16,25.56-16,51.12-16,25.56,16,51.11,16,25.56-16,51.12-16,25.56,16,51.13,16,25.55-16,51.11-16,25.57,16,51.13,16,25.56-16,51.11-16,25.56,16,51.12,16,25.56-16,51.13-16,25.56,16,51.12,16,25.56-16,51.12-16,25.57,16,51.13,16" transform="translate(-169 -87)"/><path class="cls-2" d="M169,563.5c25.56,0,25.56,16,51.12,16s25.56-16,51.11-16,25.56,16,51.12,16,25.56-16,51.12-16,25.56,16,51.11,16,25.56-16,51.12-16,25.56,16,51.12,16,25.56-16,51.12-16,25.55,16,51.11,16,25.56-16,51.12-16,25.56,16,51.11,16,25.56-16,51.12-16,25.56,16,51.13,16,25.55-16,51.11-16,25.57,16,51.13,16,25.56-16,51.11-16,25.56,16,51.12,16,25.56-16,51.13-16,25.56,16,51.12,16,25.56-16,51.12-16,25.57,16,51.13,16" transform="translate(-169 -87)"/><path class="cls-2" d="M169,556.5c25.56,0,25.56,16,51.12,16s25.56-16,51.11-16,25.56,16,51.12,16,25.56-16,51.12-16,25.56,16,51.11,16,25.56-16,51.12-16,25.56,16,51.12,16,25.56-16,51.12-16,25.55,16,51.11,16,25.56-16,51.12-16,25.56,16,51.11,16,25.56-16,51.12-16,25.56,16,51.13,16,25.55-16,51.11-16,25.57,16,51.13,16,25.56-16,51.11-16,25.56,16,51.12,16,25.56-16,51.13-16,25.56,16,51.12,16,25.56-16,51.12-16,25.57,16,51.13,16" transform="translate(-169 -87)"/><path class="cls-2" d="M169,549.5c25.56,0,25.56,16,51.12,16s25.56-16,51.11-16,25.56,16,51.12,16,25.56-16,51.12-16,25.56,16,51.11,16,25.56-16,51.12-16,25.56,16,51.12,16,25.56-16,51.12-16,25.55,16,51.11,16,25.56-16,51.12-16,25.56,16,51.11,16,25.56-16,51.12-16,25.56,16,51.13,16,25.55-16,51.11-16,25.57,16,51.13,16,25.56-16,51.11-16,25.56,16,51.12,16,25.56-16,51.13-16,25.56,16,51.12,16,25.56-16,51.12-16,25.57,16,51.13,16" transform="translate(-169 -87)"/><path class="cls-2" d="M169,542.5c25.56,0,25.56,16,51.12,16s25.56-16,51.11-16,25.56,16,51.12,16,25.56-16,51.12-16,25.56,16,51.11,16,25.56-16,51.12-16,25.56,16,51.12,16,25.56-16,51.12-16,25.55,16,51.11,16,25.56-16,51.12-16,25.56,16,51.11,16,25.56-16,51.12-16,25.56,16,51.13,16,25.55-16,51.11-16,25.57,16,51.13,16,25.56-16,51.11-16,25.56,16,51.12,16,25.56-16,51.13-16,25.56,16,51.12,16,25.56-16,51.12-16,25.57,16,51.13,16" transform="translate(-169 -87)"/><path class="cls-2" d="M169,535.5c25.56,0,25.56,16,51.12,16s25.56-16,51.11-16,25.56,16,51.12,16,25.56-16,51.12-16,25.56,16,51.11,16,25.56-16,51.12-16,25.56,16,51.12,16,25.56-16,51.12-16,25.55,16,51.11,16,25.56-16,51.12-16,25.56,16,51.11,16,25.56-16,51.12-16,25.56,16,51.13,16,25.55-16,51.11-16,25.57,16,51.13,16,25.56-16,51.11-16,25.56,16,51.12,16,25.56-16,51.13-16,25.56,16,51.12,16,25.56-16,51.12-16,25.57,16,51.13,16" transform="translate(-169 -87)"/><path class="cls-2" d="M169,528.5c25.56,0,25.56,16,51.12,16s25.56-16,51.11-16,25.56,16,51.12,16,25.56-16,51.12-16,25.56,16,51.11,16,25.56-16,51.12-16,25.56,16,51.12,16,25.56-16,51.12-16,25.55,16,51.11,16,25.56-16,51.12-16,25.56,16,51.11,16,25.56-16,51.12-16,25.56,16,51.13,16,25.55-16,51.11-16,25.57,16,51.13,16,25.56-16,51.11-16,25.56,16,51.12,16,25.56-16,51.13-16,25.56,16,51.12,16,25.56-16,51.12-16,25.57,16,51.13,16" transform="translate(-169 -87)"/><path class="cls-2" d="M169,521.5c25.56,0,25.56,16,51.12,16s25.56-16,51.11-16,25.56,16,51.12,16,25.56-16,51.12-16,25.56,16,51.11,16,25.56-16,51.12-16,25.56,16,51.12,16,25.56-16,51.12-16,25.55,16,51.11,16,25.56-16,51.12-16,25.56,16,51.11,16,25.56-16,51.12-16,25.56,16,51.13,16,25.55-16,51.11-16,25.57,16,51.13,16,25.56-16,51.11-16,25.56,16,51.12,16,25.56-16,51.13-16,25.56,16,51.12,16,25.56-16,51.12-16,25.57,16,51.13,16" transform="translate(-169 -87)"/><path class="cls-2" d="M169,514.5c25.56,0,25.56,16,51.12,16s25.56-16,51.11-16,25.56,16,51.12,16,25.56-16,51.12-16,25.56,16,51.11,16,25.56-16,51.12-16,25.56,16,51.12,16,25.56-16,51.12-16,25.55,16,51.11,16,25.56-16,51.12-16,25.56,16,51.11,16,25.56-16,51.12-16,25.56,16,51.13,16,25.55-16,51.11-16,25.57,16,51.13,16,25.56-16,51.11-16,25.56,16,51.12,16,25.56-16,51.13-16,25.56,16,51.12,16,25.56-16,51.12-16,25.57,16,51.13,16" transform="translate(-169 -87)"/><path class="cls-2" d="M169,507.5c25.56,0,25.56,16,51.12,16s25.56-16,51.11-16,25.56,16,51.12,16,25.56-16,51.12-16,25.56,16,51.11,16,25.56-16,51.12-16,25.56,16,51.12,16,25.56-16,51.12-16,25.55,16,51.11,16,25.56-16,51.12-16,25.56,16,51.11,16,25.56-16,51.12-16,25.56,16,51.13,16,25.55-16,51.11-16,25.57,16,51.13,16,25.56-16,51.11-16,25.56,16,51.12,16,25.56-16,51.13-16,25.56,16,51.12,16,25.56-16,51.12-16,25.57,16,51.13,16" transform="translate(-169 -87)"/><path class="cls-2" d="M169,500.5c25.56,0,25.56,16,51.12,16s25.56-16,51.11-16,25.56,16,51.12,16,25.56-16,51.12-16,25.56,16,51.11,16,25.56-16,51.12-16,25.56,16,51.12,16,25.56-16,51.12-16,25.55,16,51.11,16,25.56-16,51.12-16,25.56,16,51.11,16,25.56-16,51.12-16,25.56,16,51.13,16,25.55-16,51.11-16,25.57,16,51.13,16,25.56-16,51.11-16,25.56,16,51.12,16,25.56-16,51.13-16,25.56,16,51.12,16,25.56-16,51.12-16,25.57,16,51.13,16" transform="translate(-169 -87)"/><path class="cls-2" d="M169,493.5c25.56,0,25.56,16,51.12,16s25.56-16,51.11-16,25.56,16,51.12,16,25.56-16,51.12-16,25.56,16,51.11,16,25.56-16,51.12-16,25.56,16,51.12,16,25.56-16,51.12-16,25.55,16,51.11,16,25.56-16,51.12-16,25.56,16,51.11,16,25.56-16,51.12-16,25.56,16,51.13,16,25.55-16,51.11-16,25.57,16,51.13,16,25.56-16,51.11-16,25.56,16,51.12,16,25.56-16,51.13-16,25.56,16,51.12,16,25.56-16,51.12-16,25.57,16,51.13,16" transform="translate(-169 -87)"/><path class="cls-2" d="M169,486.5c25.56,0,25.56,16,51.12,16s25.56-16,51.11-16,25.56,16,51.12,16,25.56-16,51.12-16,25.56,16,51.11,16,25.56-16,51.12-16,25.56,16,51.12,16,25.56-16,51.12-16,25.55,16,51.11,16,25.56-16,51.12-16,25.56,16,51.11,16,25.56-16,51.12-16,25.56,16,51.13,16,25.55-16,51.11-16,25.57,16,51.13,16,25.56-16,51.11-16,25.56,16,51.12,16,25.56-16,51.13-16,25.56,16,51.12,16,25.56-16,51.12-16,25.57,16,51.13,16" transform="translate(-169 -87)"/><path class="cls-2" d="M169,479.5c25.56,0,25.56,16,51.12,16s25.56-16,51.11-16,25.56,16,51.12,16,25.56-16,51.12-16,25.56,16,51.11,16,25.56-16,51.12-16,25.56,16,51.12,16,25.56-16,51.12-16,25.55,16,51.11,16,25.56-16,51.12-16,25.56,16,51.11,16,25.56-16,51.12-16,25.56,16,51.13,16,25.55-16,51.11-16,25.57,16,51.13,16,25.56-16,51.11-16,25.56,16,51.12,16,25.56-16,51.13-16,25.56,16,51.12,16,25.56-16,51.12-16,25.57,16,51.13,16" transform="translate(-169 -87)"/><path class="cls-2" d="M169,472.5c25.56,0,25.56,16,51.12,16s25.56-16,51.11-16,25.56,16,51.12,16,25.56-16,51.12-16,25.56,16,51.11,16,25.56-16,51.12-16,25.56,16,51.12,16,25.56-16,51.12-16,25.55,16,51.11,16,25.56-16,51.12-16,25.56,16,51.11,16,25.56-16,51.12-16,25.56,16,51.13,16,25.55-16,51.11-16,25.57,16,51.13,16,25.56-16,51.11-16,25.56,16,51.12,16,25.56-16,51.13-16,25.56,16,51.12,16,25.56-16,51.12-16,25.57,16,51.13,16" transform="translate(-169 -87)"/><path class="cls-2" d="M169,465.5c25.56,0,25.56,16,51.12,16s25.56-16,51.11-16,25.56,16,51.12,16,25.56-16,51.12-16,25.56,16,51.11,16,25.56-16,51.12-16,25.56,16,51.12,16,25.56-16,51.12-16,25.55,16,51.11,16,25.56-16,51.12-16,25.56,16,51.11,16,25.56-16,51.12-16,25.56,16,51.13,16,25.55-16,51.11-16,25.57,16,51.13,16,25.56-16,51.11-16,25.56,16,51.12,16,25.56-16,51.13-16,25.56,16,51.12,16,25.56-16,51.12-16,25.57,16,51.13,16" transform="translate(-169 -87)"/><path class="cls-2" d="M169,458.5c25.56,0,25.56,16,51.12,16s25.56-16,51.11-16,25.56,16,51.12,16,25.56-16,51.12-16,25.56,16,51.11,16,25.56-16,51.12-16,25.56,16,51.12,16,25.56-16,51.12-16,25.55,16,51.11,16,25.56-16,51.12-16,25.56,16,51.11,16,25.56-16,51.12-16,25.56,16,51.13,16,25.55-16,51.11-16,25.57,16,51.13,16,25.56-16,51.11-16,25.56,16,51.12,16,25.56-16,51.13-16,25.56,16,51.12,16,25.56-16,51.12-16,25.57,16,51.13,16" transform="translate(-169 -87)"/><path class="cls-2" d="M169,451.5c25.56,0,25.56,16,51.12,16s25.56-16,51.11-16,25.56,16,51.12,16,25.56-16,51.12-16,25.56,16,51.11,16,25.56-16,51.12-16,25.56,16,51.12,16,25.56-16,51.12-16,25.55,16,51.11,16,25.56-16,51.12-16,25.56,16,51.11,16,25.56-16,51.12-16,25.56,16,51.13,16,25.55-16,51.11-16,25.57,16,51.13,16,25.56-16,51.11-16,25.56,16,51.12,16,25.56-16,51.13-16,25.56,16,51.12,16,25.56-16,51.12-16,25.57,16,51.13,16" transform="translate(-169 -87)"/><path class="cls-2" d="M169,444.5c25.56,0,25.56,16,51.12,16s25.56-16,51.11-16,25.56,16,51.12,16,25.56-16,51.12-16,25.56,16,51.11,16,25.56-16,51.12-16,25.56,16,51.12,16,25.56-16,51.12-16,25.55,16,51.11,16,25.56-16,51.12-16,25.56,16,51.11,16,25.56-16,51.12-16,25.56,16,51.13,16,25.55-16,51.11-16,25.57,16,51.13,16,25.56-16,51.11-16,25.56,16,51.12,16,25.56-16,51.13-16,25.56,16,51.12,16,25.56-16,51.12-16,25.57,16,51.13,16" transform="translate(-169 -87)"/><path class="cls-2" d="M169,437.5c25.56,0,25.56,16,51.12,16s25.56-16,51.11-16,25.56,16,51.12,16,25.56-16,51.12-16,25.56,16,51.11,16,25.56-16,51.12-16,25.56,16,51.12,16,25.56-16,51.12-16,25.55,16,51.11,16,25.56-16,51.12-16,25.56,16,51.11,16,25.56-16,51.12-16,25.56,16,51.13,16,25.55-16,51.11-16,25.57,16,51.13,16,25.56-16,51.11-16,25.56,16,51.12,16,25.56-16,51.13-16,25.56,16,51.12,16,25.56-16,51.12-16,25.57,16,51.13,16" transform="translate(-169 -87)"/><path class="cls-2" d="M169,430.5c25.56,0,25.56,16,51.12,16s25.56-16,51.11-16,25.56,16,51.12,16,25.56-16,51.12-16,25.56,16,51.11,16,25.56-16,51.12-16,25.56,16,51.12,16,25.56-16,51.12-16,25.55,16,51.11,16,25.56-16,51.12-16,25.56,16,51.11,16,25.56-16,51.12-16,25.56,16,51.13,16,25.55-16,51.11-16,25.57,16,51.13,16,25.56-16,51.11-16,25.56,16,51.12,16,25.56-16,51.13-16,25.56,16,51.12,16,25.56-16,51.12-16,25.57,16,51.13,16" transform="translate(-169 -87)"/><path class="cls-2" d="M169,423.5c25.56,0,25.56,16,51.12,16s25.56-16,51.11-16,25.56,16,51.12,16,25.56-16,51.12-16,25.56,16,51.11,16,25.56-16,51.12-16,25.56,16,51.12,16,25.56-16,51.12-16,25.55,16,51.11,16,25.56-16,51.12-16,25.56,16,51.11,16,25.56-16,51.12-16,25.56,16,51.13,16,25.55-16,51.11-16,25.57,16,51.13,16,25.56-16,51.11-16,25.56,16,51.12,16,25.56-16,51.13-16,25.56,16,51.12,16,25.56-16,51.12-16,25.57,16,51.13,16" transform="translate(-169 -87)"/><path class="cls-2" d="M169,416.5c25.56,0,25.56,16,51.12,16s25.56-16,51.11-16,25.56,16,51.12,16,25.56-16,51.12-16,25.56,16,51.11,16,25.56-16,51.12-16,25.56,16,51.12,16,25.56-16,51.12-16,25.55,16,51.11,16,25.56-16,51.12-16,25.56,16,51.11,16,25.56-16,51.12-16,25.56,16,51.13,16,25.55-16,51.11-16,25.57,16,51.13,16,25.56-16,51.11-16,25.56,16,51.12,16,25.56-16,51.13-16,25.56,16,51.12,16,25.56-16,51.12-16,25.57,16,51.13,16" transform="translate(-169 -87)"/><path class="cls-2" d="M169,409.5c25.56,0,25.56,16,51.12,16s25.56-16,51.11-16,25.56,16,51.12,16,25.56-16,51.12-16,25.56,16,51.11,16,25.56-16,51.12-16,25.56,16,51.12,16,25.56-16,51.12-16,25.55,16,51.11,16,25.56-16,51.12-16,25.56,16,51.11,16,25.56-16,51.12-16,25.56,16,51.13,16,25.55-16,51.11-16,25.57,16,51.13,16,25.56-16,51.11-16,25.56,16,51.12,16,25.56-16,51.13-16,25.56,16,51.12,16,25.56-16,51.12-16,25.57,16,51.13,16" transform="translate(-169 -87)"/><path class="cls-2" d="M169,402.5c25.56,0,25.56,16,51.12,16s25.56-16,51.11-16,25.56,16,51.12,16,25.56-16,51.12-16,25.56,16,51.11,16,25.56-16,51.12-16,25.56,16,51.12,16,25.56-16,51.12-16,25.55,16,51.11,16,25.56-16,51.12-16,25.56,16,51.11,16,25.56-16,51.12-16,25.56,16,51.13,16,25.55-16,51.11-16,25.57,16,51.13,16,25.56-16,51.11-16,25.56,16,51.12,16,25.56-16,51.13-16,25.56,16,51.12,16,25.56-16,51.12-16,25.57,16,51.13,16" transform="translate(-169 -87)"/><path class="cls-2" d="M169,395.5c25.56,0,25.56,16,51.12,16s25.56-16,51.11-16,25.56,16,51.12,16,25.56-16,51.12-16,25.56,16,51.11,16,25.56-16,51.12-16,25.56,16,51.12,16,25.56-16,51.12-16,25.55,16,51.11,16,25.56-16,51.12-16,25.56,16,51.11,16,25.56-16,51.12-16,25.56,16,51.13,16,25.55-16,51.11-16,25.57,16,51.13,16,25.56-16,51.11-16,25.56,16,51.12,16,25.56-16,51.13-16,25.56,16,51.12,16,25.56-16,51.12-16,25.57,16,51.13,16" transform="translate(-169 -87)"/><path class="cls-2" d="M169,388.5c25.56,0,25.56,16,51.12,16s25.56-16,51.11-16,25.56,16,51.12,16,25.56-16,51.12-16,25.56,16,51.11,16,25.56-16,51.12-16,25.56,16,51.12,16,25.56-16,51.12-16,25.55,16,51.11,16,25.56-16,51.12-16,25.56,16,51.11,16,25.56-16,51.12-16,25.56,16,51.13,16,25.55-16,51.11-16,25.57,16,51.13,16,25.56-16,51.11-16,25.56,16,51.12,16,25.56-16,51.13-16,25.56,16,51.12,16,25.56-16,51.12-16,25.57,16,51.13,16" transform="translate(-169 -87)"/><path class="cls-2" d="M169,381.5c25.56,0,25.56,16,51.12,16s25.56-16,51.11-16,25.56,16,51.12,16,25.56-16,51.12-16,25.56,16,51.11,16,25.56-16,51.12-16,25.56,16,51.12,16,25.56-16,51.12-16,25.55,16,51.11,16,25.56-16,51.12-16,25.56,16,51.11,16,25.56-16,51.12-16,25.56,16,51.13,16,25.55-16,51.11-16,25.57,16,51.13,16,25.56-16,51.11-16,25.56,16,51.12,16,25.56-16,51.13-16,25.56,16,51.12,16,25.56-16,51.12-16,25.57,16,51.13,16" transform="translate(-169 -87)"/><path class="cls-2" d="M169,374.5c25.56,0,25.56,16,51.12,16s25.56-16,51.11-16,25.56,16,51.12,16,25.56-16,51.12-16,25.56,16,51.11,16,25.56-16,51.12-16,25.56,16,51.12,16,25.56-16,51.12-16,25.55,16,51.11,16,25.56-16,51.12-16,25.56,16,51.11,16,25.56-16,51.12-16,25.56,16,51.13,16,25.55-16,51.11-16,25.57,16,51.13,16,25.56-16,51.11-16,25.56,16,51.12,16,25.56-16,51.13-16,25.56,16,51.12,16,25.56-16,51.12-16,25.57,16,51.13,16" transform="translate(-169 -87)"/><path class="cls-2" d="M169,367.5c25.56,0,25.56,16,51.12,16s25.56-16,51.11-16,25.56,16,51.12,16,25.56-16,51.12-16,25.56,16,51.11,16,25.56-16,51.12-16,25.56,16,51.12,16,25.56-16,51.12-16,25.55,16,51.11,16,25.56-16,51.12-16,25.56,16,51.11,16,25.56-16,51.12-16,25.56,16,51.13,16,25.55-16,51.11-16,25.57,16,51.13,16,25.56-16,51.11-16,25.56,16,51.12,16,25.56-16,51.13-16,25.56,16,51.12,16,25.56-16,51.12-16,25.57,16,51.13,16" transform="translate(-169 -87)"/><path class="cls-2" d="M169,360.5c25.56,0,25.56,16,51.12,16s25.56-16,51.11-16,25.56,16,51.12,16,25.56-16,51.12-16,25.56,16,51.11,16,25.56-16,51.12-16,25.56,16,51.12,16,25.56-16,51.12-16,25.55,16,51.11,16,25.56-16,51.12-16,25.56,16,51.11,16,25.56-16,51.12-16,25.56,16,51.13,16,25.55-16,51.11-16,25.57,16,51.13,16,25.56-16,51.11-16,25.56,16,51.12,16,25.56-16,51.13-16,25.56,16,51.12,16,25.56-16,51.12-16,25.57,16,51.13,16" transform="translate(-169 -87)"/><path class="cls-2" d="M169,353.5c25.56,0,25.56,16,51.12,16s25.56-16,51.11-16,25.56,16,51.12,16,25.56-16,51.12-16,25.56,16,51.11,16,25.56-16,51.12-16,25.56,16,51.12,16,25.56-16,51.12-16,25.55,16,51.11,16,25.56-16,51.12-16,25.56,16,51.11,16,25.56-16,51.12-16,25.56,16,51.13,16,25.55-16,51.11-16,25.57,16,51.13,16,25.56-16,51.11-16,25.56,16,51.12,16,25.56-16,51.13-16,25.56,16,51.12,16,25.56-16,51.12-16,25.57,16,51.13,16" transform="translate(-169 -87)"/><path class="cls-2" d="M169,346.5c25.56,0,25.56,16,51.12,16s25.56-16,51.11-16,25.56,16,51.12,16,25.56-16,51.12-16,25.56,16,51.11,16,25.56-16,51.12-16,25.56,16,51.12,16,25.56-16,51.12-16,25.55,16,51.11,16,25.56-16,51.12-16,25.56,16,51.11,16,25.56-16,51.12-16,25.56,16,51.13,16,25.55-16,51.11-16,25.57,16,51.13,16,25.56-16,51.11-16,25.56,16,51.12,16,25.56-16,51.13-16,25.56,16,51.12,16,25.56-16,51.12-16,25.57,16,51.13,16" transform="translate(-169 -87)"/><path class="cls-2" d="M169,339.5c25.56,0,25.56,16,51.12,16s25.56-16,51.11-16,25.56,16,51.12,16,25.56-16,51.12-16,25.56,16,51.11,16,25.56-16,51.12-16,25.56,16,51.12,16,25.56-16,51.12-16,25.55,16,51.11,16,25.56-16,51.12-16,25.56,16,51.11,16,25.56-16,51.12-16,25.56,16,51.13,16,25.55-16,51.11-16,25.57,16,51.13,16,25.56-16,51.11-16,25.56,16,51.12,16,25.56-16,51.13-16,25.56,16,51.12,16,25.56-16,51.12-16,25.57,16,51.13,16" transform="translate(-169 -87)"/><path class="cls-2" d="M169,332.5c25.56,0,25.56,16,51.12,16s25.56-16,51.11-16,25.56,16,51.12,16,25.56-16,51.12-16,25.56,16,51.11,16,25.56-16,51.12-16,25.56,16,51.12,16,25.56-16,51.12-16,25.55,16,51.11,16,25.56-16,51.12-16,25.56,16,51.11,16,25.56-16,51.12-16,25.56,16,51.13,16,25.55-16,51.11-16,25.57,16,51.13,16,25.56-16,51.11-16,25.56,16,51.12,16,25.56-16,51.13-16,25.56,16,51.12,16,25.56-16,51.12-16,25.57,16,51.13,16" transform="translate(-169 -87)"/><path class="cls-2" d="M169,325.5c25.56,0,25.56,16,51.12,16s25.56-16,51.11-16,25.56,16,51.12,16,25.56-16,51.12-16,25.56,16,51.11,16,25.56-16,51.12-16,25.56,16,51.12,16,25.56-16,51.12-16,25.55,16,51.11,16,25.56-16,51.12-16,25.56,16,51.11,16,25.56-16,51.12-16,25.56,16,51.13,16,25.55-16,51.11-16,25.57,16,51.13,16,25.56-16,51.11-16,25.56,16,51.12,16,25.56-16,51.13-16,25.56,16,51.12,16,25.56-16,51.12-16,25.57,16,51.13,16" transform="translate(-169 -87)"/><path class="cls-2" d="M169,318.5c25.56,0,25.56,16,51.12,16s25.56-16,51.11-16,25.56,16,51.12,16,25.56-16,51.12-16,25.56,16,51.11,16,25.56-16,51.12-16,25.56,16,51.12,16,25.56-16,51.12-16,25.55,16,51.11,16,25.56-16,51.12-16,25.56,16,51.11,16,25.56-16,51.12-16,25.56,16,51.13,16,25.55-16,51.11-16,25.57,16,51.13,16,25.56-16,51.11-16,25.56,16,51.12,16,25.56-16,51.13-16,25.56,16,51.12,16,25.56-16,51.12-16,25.57,16,51.13,16" transform="translate(-169 -87)"/><path class="cls-2" d="M169,311.5c25.56,0,25.56,16,51.12,16s25.56-16,51.11-16,25.56,16,51.12,16,25.56-16,51.12-16,25.56,16,51.11,16,25.56-16,51.12-16,25.56,16,51.12,16,25.56-16,51.12-16,25.55,16,51.11,16,25.56-16,51.12-16,25.56,16,51.11,16,25.56-16,51.12-16,25.56,16,51.13,16,25.55-16,51.11-16,25.57,16,51.13,16,25.56-16,51.11-16,25.56,16,51.12,16,25.56-16,51.13-16,25.56,16,51.12,16,25.56-16,51.12-16,25.57,16,51.13,16" transform="translate(-169 -87)"/><path class="cls-2" d="M169,304.5c25.56,0,25.56,16,51.12,16s25.56-16,51.11-16,25.56,16,51.12,16,25.56-16,51.12-16,25.56,16,51.11,16,25.56-16,51.12-16,25.56,16,51.12,16,25.56-16,51.12-16,25.55,16,51.11,16,25.56-16,51.12-16,25.56,16,51.11,16,25.56-16,51.12-16,25.56,16,51.13,16,25.55-16,51.11-16,25.57,16,51.13,16,25.56-16,51.11-16,25.56,16,51.12,16,25.56-16,51.13-16,25.56,16,51.12,16,25.56-16,51.12-16,25.57,16,51.13,16" transform="translate(-169 -87)"/><path class="cls-2" d="M169,297.5c25.56,0,25.56,16,51.12,16s25.56-16,51.11-16,25.56,16,51.12,16,25.56-16,51.12-16,25.56,16,51.11,16,25.56-16,51.12-16,25.56,16,51.12,16,25.56-16,51.12-16,25.55,16,51.11,16,25.56-16,51.12-16,25.56,16,51.11,16,25.56-16,51.12-16,25.56,16,51.13,16,25.55-16,51.11-16,25.57,16,51.13,16,25.56-16,51.11-16,25.56,16,51.12,16,25.56-16,51.13-16,25.56,16,51.12,16,25.56-16,51.12-16,25.57,16,51.13,16" transform="translate(-169 -87)"/><path class="cls-2" d="M169,290.5c25.56,0,25.56,16,51.12,16s25.56-16,51.11-16,25.56,16,51.12,16,25.56-16,51.12-16,25.56,16,51.11,16,25.56-16,51.12-16,25.56,16,51.12,16,25.56-16,51.12-16,25.55,16,51.11,16,25.56-16,51.12-16,25.56,16,51.11,16,25.56-16,51.12-16,25.56,16,51.13,16,25.55-16,51.11-16,25.57,16,51.13,16,25.56-16,51.11-16,25.56,16,51.12,16,25.56-16,51.13-16,25.56,16,51.12,16,25.56-16,51.12-16,25.57,16,51.13,16" transform="translate(-169 -87)"/><path class="cls-2" d="M169,283.5c25.56,0,25.56,16,51.12,16s25.56-16,51.11-16,25.56,16,51.12,16,25.56-16,51.12-16,25.56,16,51.11,16,25.56-16,51.12-16,25.56,16,51.12,16,25.56-16,51.12-16,25.55,16,51.11,16,25.56-16,51.12-16,25.56,16,51.11,16,25.56-16,51.12-16,25.56,16,51.13,16,25.55-16,51.11-16,25.57,16,51.13,16,25.56-16,51.11-16,25.56,16,51.12,16,25.56-16,51.13-16,25.56,16,51.12,16,25.56-16,51.12-16,25.57,16,51.13,16" transform="translate(-169 -87)"/><path class="cls-2" d="M169,276.5c25.56,0,25.56,16,51.12,16s25.56-16,51.11-16,25.56,16,51.12,16,25.56-16,51.12-16,25.56,16,51.11,16,25.56-16,51.12-16,25.56,16,51.12,16,25.56-16,51.12-16,25.55,16,51.11,16,25.56-16,51.12-16,25.56,16,51.11,16,25.56-16,51.12-16,25.56,16,51.13,16,25.55-16,51.11-16,25.57,16,51.13,16,25.56-16,51.11-16,25.56,16,51.12,16,25.56-16,51.13-16,25.56,16,51.12,16,25.56-16,51.12-16,25.57,16,51.13,16" transform="translate(-169 -87)"/><path class="cls-2" d="M169,269.5c25.56,0,25.56,16,51.12,16s25.56-16,51.11-16,25.56,16,51.12,16,25.56-16,51.12-16,25.56,16,51.11,16,25.56-16,51.12-16,25.56,16,51.12,16,25.56-16,51.12-16,25.55,16,51.11,16,25.56-16,51.12-16,25.56,16,51.11,16,25.56-16,51.12-16,25.56,16,51.13,16,25.55-16,51.11-16,25.57,16,51.13,16,25.56-16,51.11-16,25.56,16,51.12,16,25.56-16,51.13-16,25.56,16,51.12,16,25.56-16,51.12-16,25.57,16,51.13,16" transform="translate(-169 -87)"/><path class="cls-2" d="M169,262.5c25.56,0,25.56,16,51.12,16s25.56-16,51.11-16,25.56,16,51.12,16,25.56-16,51.12-16,25.56,16,51.11,16,25.56-16,51.12-16,25.56,16,51.12,16,25.56-16,51.12-16,25.55,16,51.11,16,25.56-16,51.12-16,25.56,16,51.11,16,25.56-16,51.12-16,25.56,16,51.13,16,25.55-16,51.11-16,25.57,16,51.13,16,25.56-16,51.11-16,25.56,16,51.12,16,25.56-16,51.13-16,25.56,16,51.12,16,25.56-16,51.12-16,25.57,16,51.13,16" transform="translate(-169 -87)"/><path class="cls-2" d="M169,255.5c25.56,0,25.56,16,51.12,16s25.56-16,51.11-16,25.56,16,51.12,16,25.56-16,51.12-16,25.56,16,51.11,16,25.56-16,51.12-16,25.56,16,51.12,16,25.56-16,51.12-16,25.55,16,51.11,16,25.56-16,51.12-16,25.56,16,51.11,16,25.56-16,51.12-16,25.56,16,51.13,16,25.55-16,51.11-16,25.57,16,51.13,16,25.56-16,51.11-16,25.56,16,51.12,16,25.56-16,51.13-16,25.56,16,51.12,16,25.56-16,51.12-16,25.57,16,51.13,16" transform="translate(-169 -87)"/><path class="cls-2" d="M169,248.5c25.56,0,25.56,16,51.12,16s25.56-16,51.11-16,25.56,16,51.12,16,25.56-16,51.12-16,25.56,16,51.11,16,25.56-16,51.12-16,25.56,16,51.12,16,25.56-16,51.12-16,25.55,16,51.11,16,25.56-16,51.12-16,25.56,16,51.11,16,25.56-16,51.12-16,25.56,16,51.13,16,25.55-16,51.11-16,25.57,16,51.13,16,25.56-16,51.11-16,25.56,16,51.12,16,25.56-16,51.13-16,25.56,16,51.12,16,25.56-16,51.12-16,25.57,16,51.13,16" transform="translate(-169 -87)"/><path class="cls-2" d="M169,241.5c25.56,0,25.56,16,51.12,16s25.56-16,51.11-16,25.56,16,51.12,16,25.56-16,51.12-16,25.56,16,51.11,16,25.56-16,51.12-16,25.56,16,51.12,16,25.56-16,51.12-16,25.55,16,51.11,16,25.56-16,51.12-16,25.56,16,51.11,16,25.56-16,51.12-16,25.56,16,51.13,16,25.55-16,51.11-16,25.57,16,51.13,16,25.56-16,51.11-16,25.56,16,51.12,16,25.56-16,51.13-16,25.56,16,51.12,16,25.56-16,51.12-16,25.57,16,51.13,16" transform="translate(-169 -87)"/><path class="cls-2" d="M169,234.5c25.56,0,25.56,16,51.12,16s25.56-16,51.11-16,25.56,16,51.12,16,25.56-16,51.12-16,25.56,16,51.11,16,25.56-16,51.12-16,25.56,16,51.12,16,25.56-16,51.12-16,25.55,16,51.11,16,25.56-16,51.12-16,25.56,16,51.11,16,25.56-16,51.12-16,25.56,16,51.13,16,25.55-16,51.11-16,25.57,16,51.13,16,25.56-16,51.11-16,25.56,16,51.12,16,25.56-16,51.13-16,25.56,16,51.12,16,25.56-16,51.12-16,25.57,16,51.13,16" transform="translate(-169 -87)"/><path class="cls-2" d="M169,227.5c25.56,0,25.56,16,51.12,16s25.56-16,51.11-16,25.56,16,51.12,16,25.56-16,51.12-16,25.56,16,51.11,16,25.56-16,51.12-16,25.56,16,51.12,16,25.56-16,51.12-16,25.55,16,51.11,16,25.56-16,51.12-16,25.56,16,51.11,16,25.56-16,51.12-16,25.56,16,51.13,16,25.55-16,51.11-16,25.57,16,51.13,16,25.56-16,51.11-16,25.56,16,51.12,16,25.56-16,51.13-16,25.56,16,51.12,16,25.56-16,51.12-16,25.57,16,51.13,16" transform="translate(-169 -87)"/><path class="cls-2" d="M169,220.5c25.56,0,25.56,16,51.12,16s25.56-16,51.11-16,25.56,16,51.12,16,25.56-16,51.12-16,25.56,16,51.11,16,25.56-16,51.12-16,25.56,16,51.12,16,25.56-16,51.12-16,25.55,16,51.11,16,25.56-16,51.12-16,25.56,16,51.11,16,25.56-16,51.12-16,25.56,16,51.13,16,25.55-16,51.11-16,25.57,16,51.13,16,25.56-16,51.11-16,25.56,16,51.12,16,25.56-16,51.13-16,25.56,16,51.12,16,25.56-16,51.12-16,25.57,16,51.13,16" transform="translate(-169 -87)"/><path class="cls-2" d="M169,213.5c25.56,0,25.56,16,51.12,16s25.56-16,51.11-16,25.56,16,51.12,16,25.56-16,51.12-16,25.56,16,51.11,16,25.56-16,51.12-16,25.56,16,51.12,16,25.56-16,51.12-16,25.55,16,51.11,16,25.56-16,51.12-16,25.56,16,51.11,16,25.56-16,51.12-16,25.56,16,51.13,16,25.55-16,51.11-16,25.57,16,51.13,16,25.56-16,51.11-16,25.56,16,51.12,16,25.56-16,51.13-16,25.56,16,51.12,16,25.56-16,51.12-16,25.57,16,51.13,16" transform="translate(-169 -87)"/><path class="cls-2" d="M169,206.5c25.56,0,25.56,16,51.12,16s25.56-16,51.11-16,25.56,16,51.12,16,25.56-16,51.12-16,25.56,16,51.11,16,25.56-16,51.12-16,25.56,16,51.12,16,25.56-16,51.12-16,25.55,16,51.11,16,25.56-16,51.12-16,25.56,16,51.11,16,25.56-16,51.12-16,25.56,16,51.13,16,25.55-16,51.11-16,25.57,16,51.13,16,25.56-16,51.11-16,25.56,16,51.12,16,25.56-16,51.13-16,25.56,16,51.12,16,25.56-16,51.12-16,25.57,16,51.13,16" transform="translate(-169 -87)"/><path class="cls-2" d="M169,199.5c25.56,0,25.56,16,51.12,16s25.56-16,51.11-16,25.56,16,51.12,16,25.56-16,51.12-16,25.56,16,51.11,16,25.56-16,51.12-16,25.56,16,51.12,16,25.56-16,51.12-16,25.55,16,51.11,16,25.56-16,51.12-16,25.56,16,51.11,16,25.56-16,51.12-16,25.56,16,51.13,16,25.55-16,51.11-16,25.57,16,51.13,16,25.56-16,51.11-16,25.56,16,51.12,16,25.56-16,51.13-16,25.56,16,51.12,16,25.56-16,51.12-16,25.57,16,51.13,16" transform="translate(-169 -87)"/><path class="cls-2" d="M169,192.5c25.56,0,25.56,16,51.12,16s25.56-16,51.11-16,25.56,16,51.12,16,25.56-16,51.12-16,25.56,16,51.11,16,25.56-16,51.12-16,25.56,16,51.12,16,25.56-16,51.12-16,25.55,16,51.11,16,25.56-16,51.12-16,25.56,16,51.11,16,25.56-16,51.12-16,25.56,16,51.13,16,25.55-16,51.11-16,25.57,16,51.13,16,25.56-16,51.11-16,25.56,16,51.12,16,25.56-16,51.13-16,25.56,16,51.12,16,25.56-16,51.12-16,25.57,16,51.13,16" transform="translate(-169 -87)"/><path class="cls-2" d="M169,185.5c25.56,0,25.56,16,51.12,16s25.56-16,51.11-16,25.56,16,51.12,16,25.56-16,51.12-16,25.56,16,51.11,16,25.56-16,51.12-16,25.56,16,51.12,16,25.56-16,51.12-16,25.55,16,51.11,16,25.56-16,51.12-16,25.56,16,51.11,16,25.56-16,51.12-16,25.56,16,51.13,16,25.55-16,51.11-16,25.57,16,51.13,16,25.56-16,51.11-16,25.56,16,51.12,16,25.56-16,51.13-16,25.56,16,51.12,16,25.56-16,51.12-16,25.57,16,51.13,16" transform="translate(-169 -87)"/><path class="cls-2" d="M169,178.5c25.56,0,25.56,16,51.12,16s25.56-16,51.11-16,25.56,16,51.12,16,25.56-16,51.12-16,25.56,16,51.11,16,25.56-16,51.12-16,25.56,16,51.12,16,25.56-16,51.12-16,25.55,16,51.11,16,25.56-16,51.12-16,25.56,16,51.11,16,25.56-16,51.12-16,25.56,16,51.13,16,25.55-16,51.11-16,25.57,16,51.13,16,25.56-16,51.11-16,25.56,16,51.12,16,25.56-16,51.13-16,25.56,16,51.12,16,25.56-16,51.12-16,25.57,16,51.13,16" transform="translate(-169 -87)"/><path class="cls-2" d="M169,171.5c25.56,0,25.56,16,51.12,16s25.56-16,51.11-16,25.56,16,51.12,16,25.56-16,51.12-16,25.56,16,51.11,16,25.56-16,51.12-16,25.56,16,51.12,16,25.56-16,51.12-16,25.55,16,51.11,16,25.56-16,51.12-16,25.56,16,51.11,16,25.56-16,51.12-16,25.56,16,51.13,16,25.55-16,51.11-16,25.57,16,51.13,16,25.56-16,51.11-16,25.56,16,51.12,16,25.56-16,51.13-16,25.56,16,51.12,16,25.56-16,51.12-16,25.57,16,51.13,16" transform="translate(-169 -87)"/><path class="cls-2" d="M169,164.5c25.56,0,25.56,16,51.12,16s25.56-16,51.11-16,25.56,16,51.12,16,25.56-16,51.12-16,25.56,16,51.11,16,25.56-16,51.12-16,25.56,16,51.12,16,25.56-16,51.12-16,25.55,16,51.11,16,25.56-16,51.12-16,25.56,16,51.11,16,25.56-16,51.12-16,25.56,16,51.13,16,25.55-16,51.11-16,25.57,16,51.13,16,25.56-16,51.11-16,25.56,16,51.12,16,25.56-16,51.13-16,25.56,16,51.12,16,25.56-16,51.12-16,25.57,16,51.13,16" transform="translate(-169 -87)"/><path class="cls-2" d="M169,157.5c25.56,0,25.56,16,51.12,16s25.56-16,51.11-16,25.56,16,51.12,16,25.56-16,51.12-16,25.56,16,51.11,16,25.56-16,51.12-16,25.56,16,51.12,16,25.56-16,51.12-16,25.55,16,51.11,16,25.56-16,51.12-16,25.56,16,51.11,16,25.56-16,51.12-16,25.56,16,51.13,16,25.55-16,51.11-16,25.57,16,51.13,16,25.56-16,51.11-16,25.56,16,51.12,16,25.56-16,51.13-16,25.56,16,51.12,16,25.56-16,51.12-16,25.57,16,51.13,16" transform="translate(-169 -87)"/><path class="cls-2" d="M169,150.5c25.56,0,25.56,16,51.12,16s25.56-16,51.11-16,25.56,16,51.12,16,25.56-16,51.12-16,25.56,16,51.11,16,25.56-16,51.12-16,25.56,16,51.12,16,25.56-16,51.12-16,25.55,16,51.11,16,25.56-16,51.12-16,25.56,16,51.11,16,25.56-16,51.12-16,25.56,16,51.13,16,25.55-16,51.11-16,25.57,16,51.13,16,25.56-16,51.11-16,25.56,16,51.12,16,25.56-16,51.13-16,25.56,16,51.12,16,25.56-16,51.12-16,25.57,16,51.13,16" transform="translate(-169 -87)"/><path class="cls-2" d="M169,143.5c25.56,0,25.56,16,51.12,16s25.56-16,51.11-16,25.56,16,51.12,16,25.56-16,51.12-16,25.56,16,51.11,16,25.56-16,51.12-16,25.56,16,51.12,16,25.56-16,51.12-16,25.55,16,51.11,16,25.56-16,51.12-16,25.56,16,51.11,16,25.56-16,51.12-16,25.56,16,51.13,16,25.55-16,51.11-16,25.57,16,51.13,16,25.56-16,51.11-16,25.56,16,51.12,16,25.56-16,51.13-16,25.56,16,51.12,16,25.56-16,51.12-16,25.57,16,51.13,16" transform="translate(-169 -87)"/><path class="cls-2" d="M169,136.5c25.56,0,25.56,16,51.12,16s25.56-16,51.11-16,25.56,16,51.12,16,25.56-16,51.12-16,25.56,16,51.11,16,25.56-16,51.12-16,25.56,16,51.12,16,25.56-16,51.12-16,25.55,16,51.11,16,25.56-16,51.12-16,25.56,16,51.11,16,25.56-16,51.12-16,25.56,16,51.13,16,25.55-16,51.11-16,25.57,16,51.13,16,25.56-16,51.11-16,25.56,16,51.12,16,25.56-16,51.13-16,25.56,16,51.12,16,25.56-16,51.12-16,25.57,16,51.13,16" transform="translate(-169 -87)"/><path class="cls-2" d="M169,129.5c25.56,0,25.56,16,51.12,16s25.56-16,51.11-16,25.56,16,51.12,16,25.56-16,51.12-16,25.56,16,51.11,16,25.56-16,51.12-16,25.56,16,51.12,16,25.56-16,51.12-16,25.55,16,51.11,16,25.56-16,51.12-16,25.56,16,51.11,16,25.56-16,51.12-16,25.56,16,51.13,16,25.55-16,51.11-16,25.57,16,51.13,16,25.56-16,51.11-16,25.56,16,51.12,16,25.56-16,51.13-16,25.56,16,51.12,16,25.56-16,51.12-16,25.57,16,51.13,16" transform="translate(-169 -87)"/><path class="cls-2" d="M169,122.5c25.56,0,25.56,16,51.12,16s25.56-16,51.11-16,25.56,16,51.12,16,25.56-16,51.12-16,25.56,16,51.11,16,25.56-16,51.12-16,25.56,16,51.12,16,25.56-16,51.12-16,25.55,16,51.11,16,25.56-16,51.12-16,25.56,16,51.11,16,25.56-16,51.12-16,25.56,16,51.13,16,25.55-16,51.11-16,25.57,16,51.13,16,25.56-16,51.11-16,25.56,16,51.12,16,25.56-16,51.13-16,25.56,16,51.12,16,25.56-16,51.12-16,25.57,16,51.13,16" transform="translate(-169 -87)"/><path class="cls-2" d="M169,115.5c25.56,0,25.56,16,51.12,16s25.56-16,51.11-16,25.56,16,51.12,16,25.56-16,51.12-16,25.56,16,51.11,16,25.56-16,51.12-16,25.56,16,51.12,16,25.56-16,51.12-16,25.55,16,51.11,16,25.56-16,51.12-16,25.56,16,51.11,16,25.56-16,51.12-16,25.56,16,51.13,16,25.55-16,51.11-16,25.57,16,51.13,16,25.56-16,51.11-16,25.56,16,51.12,16,25.56-16,51.13-16,25.56,16,51.12,16,25.56-16,51.12-16,25.57,16,51.13,16" transform="translate(-169 -87)"/><path class="cls-2" d="M169,108.5c25.56,0,25.56,16,51.12,16s25.56-16,51.11-16,25.56,16,51.12,16,25.56-16,51.12-16,25.56,16,51.11,16,25.56-16,51.12-16,25.56,16,51.12,16,25.56-16,51.12-16,25.55,16,51.11,16,25.56-16,51.12-16,25.56,16,51.11,16,25.56-16,51.12-16,25.56,16,51.13,16,25.55-16,51.11-16,25.57,16,51.13,16,25.56-16,51.11-16,25.56,16,51.12,16,25.56-16,51.13-16,25.56,16,51.12,16,25.56-16,51.12-16,25.57,16,51.13,16" transform="translate(-169 -87)"/><path class="cls-2" d="M169,101.5c25.56,0,25.56,16,51.12,16s25.56-16,51.11-16,25.56,16,51.12,16,25.56-16,51.12-16,25.56,16,51.11,16,25.56-16,51.12-16,25.56,16,51.12,16,25.56-16,51.12-16,25.55,16,51.11,16,25.56-16,51.12-16,25.56,16,51.11,16,25.56-16,51.12-16,25.56,16,51.13,16,25.55-16,51.11-16,25.57,16,51.13,16,25.56-16,51.11-16,25.56,16,51.12,16,25.56-16,51.13-16,25.56,16,51.12,16,25.56-16,51.12-16,25.57,16,51.13,16" transform="translate(-169 -87)"/><path class="cls-2" d="M169,94.5c25.56,0,25.56,16,51.12,16s25.56-16,51.11-16,25.56,16,51.12,16,25.56-16,51.12-16,25.56,16,51.11,16,25.56-16,51.12-16,25.56,16,51.12,16,25.56-16,51.12-16,25.55,16,51.11,16,25.56-16,51.12-16,25.56,16,51.11,16,25.56-16,51.12-16,25.56,16,51.13,16,25.55-16,51.11-16,25.57,16,51.13,16,25.56-16,51.11-16,25.56,16,51.12,16,25.56-16,51.13-16,25.56,16,51.12,16,25.56-16,51.12-16,25.57,16,51.13,16" transform="translate(-169 -87)"/><path class="cls-2" d="M169,87.5c25.56,0,25.56,16,51.12,16s25.56-16,51.11-16,25.56,16,51.12,16,25.56-16,51.12-16,25.56,16,51.11,16,25.56-16,51.12-16,25.56,16,51.12,16,25.56-16,51.12-16,25.55,16,51.11,16,25.56-16,51.12-16,25.56,16,51.11,16,25.56-16,51.12-16,25.56,16,51.13,16,25.55-16,51.11-16,25.57,16,51.13,16,25.56-16,51.11-16,25.56,16,51.12,16,25.56-16,51.13-16,25.56,16,51.12,16,25.56-16,51.12-16,25.57,16,51.13,16" transform="translate(-169 -87)"/></g></svg>