<?xml version="1.0" encoding="UTF-8"?>
<svg width="36px" height="36px" viewBox="0 0 36 36" version="1.1" xmlns="http://www.w3.org/2000/svg" xmlns:xlink="http://www.w3.org/1999/xlink">
    <title>youtube</title>
    <g id="Page-1" stroke="none" stroke-width="1" fill="none" fill-rule="evenodd" opacity="0.602607195">
        <g id="DevX-LP-blue" transform="translate(-1284.000000, -52.000000)" fill="#FFFFFF" fill-rule="nonzero">
            <g id="youtube" transform="translate(1284.000000, 52.000000)">
                <path d="M18.4061347,7.99890889 C18.4298836,7.99897454 18.4563912,7.9990566 18.4855525,7.99915917 L18.8168227,8.00074707 C20.8030944,8.01256395 27.5256524,8.09085079 29.4208417,8.60950111 C30.6425512,8.93854011 31.6059478,9.90171905 31.9347692,11.1236463 C32.4654374,13.0618702 32.5176278,16.8254146 32.5221747,17.7822645 L32.5221697,18.090874 C32.5187973,18.7236699 32.4760794,22.812531 31.9349868,24.8684234 C31.6059478,26.0901331 30.6427689,27.0535296 29.4208417,27.382351 C28.4521894,27.6373341 26.2225025,27.7816641 24.0086836,27.8633603 L23.4323652,27.8832832 C21.3266743,27.9513555 19.3370914,27.9659424 18.5811029,27.9690682 L17.9406919,27.9690344 C16.3295069,27.962092 9.10022819,27.9007673 7.10015921,27.3590658 C5.87823197,27.0300268 4.91505303,26.0666302 4.58601403,24.8449207 C4.09140179,22.9850394 4.01330512,19.3924288 4.00097407,18.3042884 L3.99934705,18.1306458 C3.99917579,18.1069417 3.99904734,18.085942 3.998951,18.0677761 L3.998951,17.901192 C3.99904734,17.8831113 3.99917579,17.8622092 3.99934705,17.8386138 L4.00097407,17.6657452 C4.01330512,16.5823304 4.09140179,13.0031361 4.58601403,11.1236463 C4.91483537,9.90193665 5.90173475,8.91503732 7.09994161,8.58621593 C8.99513083,8.08733605 15.717532,8.01203342 17.7037563,8.00066699 L18.0350186,7.99913962 C18.0641792,7.99904096 18.0906862,7.99896202 18.1144345,7.99889888 Z M15.4175339,13.7080822 L15.4175339,22.2604847 L22.8420203,17.9842835 L15.4175339,13.7080822 Z" id="Combined-Shape"></path>
            </g>
        </g>
    </g>
</svg>